<svg xmlns="http://www.w3.org/2000/svg" xmlns:xlink="http://www.w3.org/1999/xlink" width="500" zoomAndPan="magnify" viewBox="0 0 375 374.999991" height="500" preserveAspectRatio="xMidYMid meet" version="1.2"><defs><clipPath id="6a079a5d92"><path d="M 166.308594 133.828125 L 207.886719 133.828125 L 207.886719 158.492188 L 166.308594 158.492188 Z M 166.308594 133.828125 "/></clipPath><clipPath id="29061dc47a"><path d="M 207.886719 151.484375 L 207.886719 135.820312 C 207.886719 134.722656 206.984375 133.828125 205.894531 133.828125 L 192.015625 133.828125 C 186.972656 133.828125 187.089844 138.546875 187.097656 138.738281 C 187.089844 138.539062 186.855469 133.828125 182.179688 133.828125 L 168.300781 133.828125 C 167.203125 133.828125 166.308594 134.722656 166.308594 135.820312 L 166.308594 151.507812 C 166.308594 152.601562 167.203125 153.5 168.300781 153.5 L 182.179688 153.5 C 186.855469 153.5 187.089844 158.21875 187.097656 158.410156 C 187.089844 158.210938 186.972656 153.5 192.015625 153.5 L 205.894531 153.5 C 206.984375 153.5 207.886719 152.609375 207.886719 151.507812 Z M 207.886719 151.484375 "/></clipPath></defs><g id="5728deb053"><rect x="0" width="375" y="0" height="374.999991" style="fill:#ffffff;fill-opacity:1;stroke:none;"/><rect x="0" width="375" y="0" height="374.999991" style="fill:#eeeeee;fill-opacity:1;stroke:none;"/><g clip-rule="nonzero" clip-path="url(#6a079a5d92)"><g clip-rule="nonzero" clip-path="url(#29061dc47a)"><path style=" stroke:none;fill-rule:nonzero;fill:#3c4a84;fill-opacity:1;" d="M 166.308594 133.828125 L 207.886719 133.828125 L 207.886719 158.40625 L 166.308594 158.40625 Z M 166.308594 133.828125 "/></g></g><g style="fill:#3c4a84;fill-opacity:1;"><g transform="translate(121.084697, 213.124248)"><path style="stroke:none" d="M 9.59375 -14.234375 L 4.9375 -14.234375 L 4.9375 -8.5 L 7.5625 -8.5 L 8.234375 -10.3125 L 9.140625 -10.15625 L 9.140625 -5.90625 L 8.234375 -5.75 L 7.5625 -7.5625 L 4.9375 -7.5625 L 4.9375 -0.90625 L 9.703125 -0.90625 L 10.90625 -4.15625 L 11.8125 -4 L 11.8125 0 L 0.953125 0 L 0.796875 -0.90625 L 2.640625 -1.625 L 2.640625 -13.515625 L 0.75 -14.234375 L 0.9375 -15.140625 L 11.421875 -15.140625 L 11.421875 -11.890625 L 10.515625 -11.71875 Z M 9.59375 -14.234375 "/></g></g><g style="fill:#3c4a84;fill-opacity:1;"><g transform="translate(135.808802, 213.124248)"><path style="stroke:none" d="M 6.8125 -14.234375 L 4.9375 -14.234375 L 4.9375 -0.90625 L 6.8125 -0.90625 C 8.039062 -0.90625 9.050781 -1.21875 9.84375 -1.84375 C 10.632812 -2.476562 11.21875 -3.304688 11.59375 -4.328125 C 11.976562 -5.359375 12.171875 -6.488281 12.171875 -7.71875 C 12.171875 -8.945312 11.976562 -10.050781 11.59375 -11.03125 C 11.21875 -12.007812 10.632812 -12.785156 9.84375 -13.359375 C 9.050781 -13.941406 8.039062 -14.234375 6.8125 -14.234375 Z M 6.75 0 L 0.9375 0 L 0.78125 -0.90625 L 2.640625 -1.625 L 2.640625 -13.515625 L 0.75 -14.234375 L 0.90625 -15.140625 L 6.8125 -15.140625 C 8.613281 -15.140625 10.097656 -14.804688 11.265625 -14.140625 C 12.429688 -13.472656 13.296875 -12.578125 13.859375 -11.453125 C 14.421875 -10.335938 14.703125 -9.078125 14.703125 -7.671875 C 14.703125 -6.617188 14.539062 -5.628906 14.21875 -4.703125 C 13.90625 -3.785156 13.421875 -2.972656 12.765625 -2.265625 C 12.109375 -1.566406 11.28125 -1.015625 10.28125 -0.609375 C 9.28125 -0.203125 8.101562 0 6.75 0 Z M 6.75 0 "/></g></g><g style="fill:#3c4a84;fill-opacity:1;"><g transform="translate(153.322038, 213.124248)"><path style="stroke:none" d="M 8.21875 0.375 C 7.476562 0.375 6.769531 0.28125 6.09375 0.09375 C 5.414062 -0.09375 4.804688 -0.425781 4.265625 -0.90625 C 3.722656 -1.394531 3.296875 -2.082031 2.984375 -2.96875 C 2.679688 -3.851562 2.53125 -5 2.53125 -6.40625 L 2.53125 -13.515625 L 0.65625 -14.234375 L 0.796875 -15.140625 L 6.546875 -15.140625 L 6.703125 -14.234375 L 4.828125 -13.515625 L 4.828125 -6.296875 C 4.828125 -4.316406 5.109375 -2.882812 5.671875 -2 C 6.242188 -1.125 7.207031 -0.6875 8.5625 -0.6875 C 11.257812 -0.6875 12.609375 -2.539062 12.609375 -6.25 L 12.609375 -13.515625 L 10.703125 -14.234375 L 10.875 -15.140625 L 15.21875 -15.140625 L 15.375 -14.234375 L 13.5 -13.515625 L 13.5 -6.40625 C 13.5 -5 13.351562 -3.851562 13.0625 -2.96875 C 12.769531 -2.082031 12.375 -1.394531 11.875 -0.90625 C 11.382812 -0.425781 10.820312 -0.09375 10.1875 0.09375 C 9.550781 0.28125 8.894531 0.375 8.21875 0.375 Z M 8.21875 0.375 "/></g></g><g style="fill:#3c4a84;fill-opacity:1;"><g transform="translate(171.181205, 213.124248)"><path style="stroke:none" d="M 4.9375 -14.234375 L 4.9375 -0.90625 L 8.046875 -0.90625 C 8.640625 -0.90625 9.15625 -1.0625 9.59375 -1.375 C 10.03125 -1.695312 10.375 -2.117188 10.625 -2.640625 C 10.875 -3.171875 11 -3.753906 11 -4.390625 C 11 -5.023438 10.851562 -5.609375 10.5625 -6.140625 C 10.269531 -6.671875 9.863281 -7.097656 9.34375 -7.421875 C 8.820312 -7.753906 8.222656 -7.921875 7.546875 -7.921875 L 5.84375 -7.921875 L 5.84375 -8.828125 L 6.8125 -8.828125 C 7.3125 -8.828125 7.765625 -8.945312 8.171875 -9.1875 C 8.578125 -9.4375 8.898438 -9.765625 9.140625 -10.171875 C 9.390625 -10.585938 9.515625 -11.039062 9.515625 -11.53125 C 9.515625 -12.28125 9.296875 -12.914062 8.859375 -13.4375 C 8.429688 -13.96875 7.691406 -14.234375 6.640625 -14.234375 Z M 8.671875 0 L 0.953125 0 L 0.78125 -0.90625 L 2.640625 -1.625 L 2.640625 -13.515625 L 0.75 -14.234375 L 0.90625 -15.140625 L 8.328125 -15.140625 C 9.035156 -15.140625 9.671875 -14.984375 10.234375 -14.671875 C 10.796875 -14.359375 11.238281 -13.945312 11.5625 -13.4375 C 11.882812 -12.925781 12.046875 -12.351562 12.046875 -11.71875 C 12.046875 -10.914062 11.789062 -10.203125 11.28125 -9.578125 C 10.78125 -8.960938 10.148438 -8.566406 9.390625 -8.390625 L 9.390625 -8.296875 C 10.148438 -8.296875 10.84375 -8.109375 11.46875 -7.734375 C 12.09375 -7.359375 12.59375 -6.859375 12.96875 -6.234375 C 13.34375 -5.609375 13.53125 -4.914062 13.53125 -4.15625 C 13.53125 -3.382812 13.332031 -2.6875 12.9375 -2.0625 C 12.539062 -1.4375 11.984375 -0.9375 11.265625 -0.5625 C 10.546875 -0.1875 9.679688 0 8.671875 0 Z M 8.671875 0 "/></g></g><g style="fill:#3c4a84;fill-opacity:1;"><g transform="translate(187.959318, 213.124248)"><path style="stroke:none" d="M 9.59375 -14.234375 L 4.9375 -14.234375 L 4.9375 -8.5 L 7.5625 -8.5 L 8.234375 -10.3125 L 9.140625 -10.15625 L 9.140625 -5.90625 L 8.234375 -5.75 L 7.5625 -7.5625 L 4.9375 -7.5625 L 4.9375 -0.90625 L 9.703125 -0.90625 L 10.90625 -4.15625 L 11.8125 -4 L 11.8125 0 L 0.953125 0 L 0.796875 -0.90625 L 2.640625 -1.625 L 2.640625 -13.515625 L 0.75 -14.234375 L 0.9375 -15.140625 L 11.421875 -15.140625 L 11.421875 -11.890625 L 10.515625 -11.71875 Z M 9.59375 -14.234375 "/></g></g><g style="fill:#3c4a84;fill-opacity:1;"><g transform="translate(202.683423, 213.124248)"><path style="stroke:none" d="M 0.546875 -0.90625 L 2.40625 -1.625 L 2.40625 -13.515625 L 0.515625 -14.234375 L 0.671875 -15.140625 L 4.796875 -15.140625 L 12.265625 -3.328125 L 12.265625 -13.515625 L 10.40625 -14.234375 L 10.546875 -15.140625 L 14.859375 -15.140625 L 15 -14.234375 L 13.140625 -13.515625 L 13.140625 0 L 11.875 0.375 L 3.3125 -13.21875 L 3.3125 -1.625 L 5.140625 -0.90625 L 5 0 L 0.71875 0 Z M 0.546875 -0.90625 "/></g></g><g style="fill:#3c4a84;fill-opacity:1;"><g transform="translate(220.43449, 213.124248)"><path style="stroke:none" d="M 8.34375 -0.6875 C 8.738281 -0.6875 9.191406 -0.722656 9.703125 -0.796875 C 10.222656 -0.867188 10.6875 -0.972656 11.09375 -1.109375 L 12.203125 -4.15625 L 13.109375 -4 L 13.109375 -0.90625 C 12.566406 -0.519531 11.859375 -0.210938 10.984375 0.015625 C 10.117188 0.253906 9.238281 0.375 8.34375 0.375 C 6.945312 0.375 5.757812 0.148438 4.78125 -0.296875 C 3.800781 -0.742188 3.003906 -1.347656 2.390625 -2.109375 C 1.773438 -2.867188 1.332031 -3.71875 1.0625 -4.65625 C 0.789062 -5.601562 0.65625 -6.570312 0.65625 -7.5625 C 0.65625 -8.5625 0.804688 -9.53125 1.109375 -10.46875 C 1.421875 -11.414062 1.890625 -12.269531 2.515625 -13.03125 C 3.140625 -13.789062 3.9375 -14.390625 4.90625 -14.828125 C 5.882812 -15.273438 7.03125 -15.5 8.34375 -15.5 C 9.320312 -15.5 10.171875 -15.394531 10.890625 -15.1875 C 11.617188 -14.976562 12.359375 -14.660156 13.109375 -14.234375 L 13.109375 -11.28125 L 12.203125 -11.140625 L 11.15625 -14.03125 C 10.707031 -14.164062 10.226562 -14.269531 9.71875 -14.34375 C 9.21875 -14.414062 8.757812 -14.453125 8.34375 -14.453125 C 6.613281 -14.453125 5.320312 -13.898438 4.46875 -12.796875 C 3.625 -11.703125 3.203125 -9.992188 3.203125 -7.671875 C 3.203125 -6.835938 3.269531 -6.007812 3.40625 -5.1875 C 3.539062 -4.363281 3.789062 -3.613281 4.15625 -2.9375 C 4.53125 -2.257812 5.054688 -1.710938 5.734375 -1.296875 C 6.410156 -0.890625 7.28125 -0.6875 8.34375 -0.6875 Z M 8.34375 -0.6875 "/></g></g><g style="fill:#3c4a84;fill-opacity:1;"><g transform="translate(236.045066, 213.124248)"><path style="stroke:none" d="M 16.5 -14.234375 L 14.625 -13.515625 L 14.625 -1.625 L 16.453125 -0.90625 L 16.3125 0 L 10.59375 0 L 10.4375 -0.90625 L 12.328125 -1.625 L 12.328125 -7.359375 L 5.03125 -7.359375 L 5.03125 -1.625 L 6.875 -0.90625 L 6.71875 0 L 1.0625 0 L 0.890625 -0.90625 L 2.75 -1.625 L 2.75 -13.515625 L 0.859375 -14.234375 L 1.015625 -15.140625 L 6.765625 -15.140625 L 6.921875 -14.234375 L 5.03125 -13.515625 L 5.03125 -8.265625 L 12.328125 -8.265625 L 12.328125 -13.515625 L 10.4375 -14.234375 L 10.59375 -15.140625 L 16.34375 -15.140625 Z M 16.5 -14.234375 "/></g></g><g style="fill:#5e5e5e;fill-opacity:1;"><g transform="translate(27.608882, 231.714459)"><path style="stroke:none" d="M 2.0625 -5.03125 L 2.0625 -0.5625 L 3.15625 -0.5625 C 3.332031 -0.5625 3.484375 -0.613281 3.609375 -0.71875 C 3.742188 -0.832031 3.847656 -0.972656 3.921875 -1.140625 C 4.003906 -1.316406 4.046875 -1.5 4.046875 -1.6875 C 4.046875 -1.882812 4 -2.0625 3.90625 -2.21875 C 3.8125 -2.382812 3.6875 -2.515625 3.53125 -2.609375 C 3.375 -2.710938 3.191406 -2.765625 2.984375 -2.765625 L 2.390625 -2.765625 L 2.390625 -3.390625 L 2.734375 -3.390625 C 2.953125 -3.390625 3.132812 -3.46875 3.28125 -3.625 C 3.4375 -3.78125 3.515625 -3.96875 3.515625 -4.1875 C 3.515625 -4.40625 3.453125 -4.597656 3.328125 -4.765625 C 3.203125 -4.941406 2.976562 -5.03125 2.65625 -5.03125 Z M 3.375 0 L 0.375 0 L 0.28125 -0.5625 L 0.953125 -0.8125 L 0.953125 -4.765625 L 0.28125 -5.03125 L 0.375 -5.59375 L 3.25 -5.59375 C 3.53125 -5.59375 3.78125 -5.53125 4 -5.40625 C 4.21875 -5.289062 4.390625 -5.128906 4.515625 -4.921875 C 4.648438 -4.722656 4.71875 -4.5 4.71875 -4.25 C 4.71875 -4.019531 4.660156 -3.804688 4.546875 -3.609375 C 4.429688 -3.410156 4.285156 -3.253906 4.109375 -3.140625 C 4.429688 -3.035156 4.695312 -2.84375 4.90625 -2.5625 C 5.125 -2.28125 5.234375 -1.960938 5.234375 -1.609375 C 5.234375 -1.316406 5.15625 -1.046875 5 -0.796875 C 4.851562 -0.554688 4.640625 -0.363281 4.359375 -0.21875 C 4.085938 -0.0703125 3.757812 0 3.375 0 Z M 3.375 0 "/></g></g><g style="fill:#5e5e5e;fill-opacity:1;"><g transform="translate(37.560905, 231.714459)"><path style="stroke:none" d="M 3.59375 -5.03125 L 2.0625 -5.03125 L 2.0625 -3.203125 L 2.875 -3.203125 L 3.125 -3.84375 L 3.703125 -3.765625 L 3.703125 -2 L 3.125 -1.921875 L 2.875 -2.5625 L 2.0625 -2.5625 L 2.0625 -0.5625 L 3.625 -0.5625 L 4.0625 -1.765625 L 4.625 -1.6875 L 4.625 0 L 0.375 0 L 0.296875 -0.5625 L 0.953125 -0.8125 L 0.953125 -4.765625 L 0.28125 -5.03125 L 0.375 -5.59375 L 4.484375 -5.59375 L 4.484375 -4.171875 L 3.90625 -4.09375 Z M 3.59375 -5.03125 "/></g></g><g style="fill:#5e5e5e;fill-opacity:1;"><g transform="translate(46.784922, 231.714459)"><path style="stroke:none" d="M 0.203125 -0.5625 L 0.859375 -0.828125 L 0.859375 -4.765625 L 0.1875 -5.03125 L 0.265625 -5.59375 L 1.9375 -5.59375 L 4.1875 -2.28125 L 4.46875 -1.453125 L 4.46875 -4.765625 L 3.8125 -5.03125 L 3.890625 -5.59375 L 5.671875 -5.59375 L 5.75 -5.03125 L 5.09375 -4.765625 L 5.09375 0 L 4.421875 0.140625 L 1.484375 -4.25 L 1.484375 -0.8125 L 2.140625 -0.5625 L 2.0625 0 L 0.28125 0 Z M 0.203125 -0.5625 "/></g></g><g style="fill:#5e5e5e;fill-opacity:1;"><g transform="translate(57.072944, 231.714459)"><path style="stroke:none" d="M 3.171875 -0.53125 C 3.285156 -0.53125 3.429688 -0.539062 3.609375 -0.5625 C 3.796875 -0.582031 3.957031 -0.609375 4.09375 -0.640625 L 4.5 -1.765625 L 5.0625 -1.6875 L 5.0625 -0.390625 C 4.914062 -0.273438 4.734375 -0.175781 4.515625 -0.09375 C 4.304688 -0.0195312 4.082031 0.0351562 3.84375 0.078125 C 3.613281 0.117188 3.390625 0.140625 3.171875 0.140625 C 2.648438 0.140625 2.203125 0.0546875 1.828125 -0.109375 C 1.460938 -0.273438 1.160156 -0.5 0.921875 -0.78125 C 0.691406 -1.0625 0.519531 -1.375 0.40625 -1.71875 C 0.289062 -2.070312 0.234375 -2.429688 0.234375 -2.796875 C 0.234375 -3.171875 0.296875 -3.53125 0.421875 -3.875 C 0.546875 -4.226562 0.726562 -4.539062 0.96875 -4.8125 C 1.21875 -5.09375 1.523438 -5.316406 1.890625 -5.484375 C 2.253906 -5.648438 2.679688 -5.734375 3.171875 -5.734375 C 3.523438 -5.734375 3.851562 -5.691406 4.15625 -5.609375 C 4.457031 -5.523438 4.757812 -5.394531 5.0625 -5.21875 L 5.0625 -3.96875 L 4.484375 -3.890625 L 4.125 -4.9375 C 3.976562 -4.976562 3.816406 -5.007812 3.640625 -5.03125 C 3.460938 -5.050781 3.304688 -5.0625 3.171875 -5.0625 C 2.617188 -5.0625 2.191406 -4.878906 1.890625 -4.515625 C 1.585938 -4.148438 1.4375 -3.59375 1.4375 -2.84375 C 1.4375 -2.570312 1.460938 -2.296875 1.515625 -2.015625 C 1.566406 -1.742188 1.65625 -1.492188 1.78125 -1.265625 C 1.914062 -1.046875 2.09375 -0.867188 2.3125 -0.734375 C 2.539062 -0.597656 2.828125 -0.53125 3.171875 -0.53125 Z M 3.171875 -0.53125 "/></g></g><g style="fill:#5e5e5e;fill-opacity:1;"><g transform="translate(66.584965, 231.714459)"><path style="stroke:none" d="M 6.234375 -5.03125 L 5.5625 -4.765625 L 5.5625 -0.828125 L 6.234375 -0.5625 L 6.140625 0 L 3.875 0 L 3.796875 -0.5625 L 4.46875 -0.8125 L 4.46875 -2.578125 L 2.09375 -2.578125 L 2.09375 -0.8125 L 2.75 -0.5625 L 2.671875 0 L 0.421875 0 L 0.328125 -0.5625 L 0.984375 -0.8125 L 0.984375 -4.765625 L 0.3125 -5.03125 L 0.40625 -5.59375 L 2.6875 -5.59375 L 2.765625 -5.03125 L 2.09375 -4.765625 L 2.09375 -3.1875 L 4.46875 -3.1875 L 4.46875 -4.765625 L 3.796875 -5.03125 L 3.875 -5.59375 L 6.15625 -5.59375 Z M 6.234375 -5.03125 "/></g></g><g style="fill:#5e5e5e;fill-opacity:1;"><g transform="translate(77.464997, 231.714459)"><path style="stroke:none" d="M 5.3125 -3.890625 L 3.890625 0 L 3.296875 0.140625 L 1.890625 -3.703125 L 1.53125 -0.828125 L 2.1875 -0.5625 L 2.109375 0 L 0.328125 0 L 0.234375 -0.5625 L 0.90625 -0.828125 L 1.375 -4.765625 L 0.71875 -5.03125 L 0.796875 -5.59375 L 2.40625 -5.59375 L 3.703125 -2.109375 L 3.703125 -1.296875 L 5.28125 -5.59375 L 6.9375 -5.59375 L 7.03125 -5.03125 L 6.359375 -4.765625 L 6.75 -0.8125 L 7.40625 -0.5625 L 7.328125 0 L 5.0625 0 L 4.984375 -0.5625 L 5.625 -0.8125 Z M 5.3125 -3.890625 "/></g></g><g style="fill:#5e5e5e;fill-opacity:1;"><g transform="translate(89.50503, 231.714459)"><path style="stroke:none" d="M 2.65625 -5.59375 L 3.53125 -5.734375 L 5.3125 -0.828125 L 6.03125 -0.5625 L 5.9375 0 L 3.609375 0 L 3.515625 -0.5625 L 4.15625 -0.828125 L 3.796875 -1.78125 L 1.921875 -1.78125 L 1.53125 -0.828125 L 2.28125 -0.578125 L 2.203125 0 L 0.203125 0 L 0.125 -0.5625 L 0.8125 -0.828125 Z M 3.5625 -2.40625 L 3.0625 -3.765625 L 3.0625 -4.6875 L 2.15625 -2.40625 Z M 3.5625 -2.40625 "/></g></g><g style="fill:#5e5e5e;fill-opacity:1;"><g transform="translate(99.913057, 231.714459)"><path style="stroke:none" d="M 2.0625 -5.03125 L 2.0625 -0.828125 L 2.734375 -0.5625 L 2.640625 0 L 0.390625 0 L 0.296875 -0.5625 L 0.953125 -0.8125 L 0.953125 -4.765625 L 0.28125 -5.03125 L 0.375 -5.59375 L 3.140625 -5.59375 C 3.742188 -5.59375 4.203125 -5.445312 4.515625 -5.15625 C 4.828125 -4.875 4.984375 -4.484375 4.984375 -3.984375 C 4.984375 -3.765625 4.929688 -3.566406 4.828125 -3.390625 C 4.734375 -3.210938 4.601562 -3.054688 4.4375 -2.921875 C 4.28125 -2.785156 4.101562 -2.679688 3.90625 -2.609375 C 3.707031 -2.535156 3.507812 -2.5 3.3125 -2.5 L 3.84375 -2.234375 L 4.640625 -0.8125 L 5.34375 -0.5625 L 5.25 0 L 3.5 0 L 3.578125 -0.4375 L 2.40625 -2.5 L 2.40625 -3.015625 L 2.90625 -3.015625 C 3.113281 -3.015625 3.289062 -3.0625 3.4375 -3.15625 C 3.59375 -3.25 3.707031 -3.375 3.78125 -3.53125 C 3.863281 -3.6875 3.90625 -3.835938 3.90625 -3.984375 C 3.90625 -4.285156 3.816406 -4.535156 3.640625 -4.734375 C 3.472656 -4.929688 3.207031 -5.03125 2.84375 -5.03125 Z M 2.0625 -5.03125 "/></g></g><g style="fill:#5e5e5e;fill-opacity:1;"><g transform="translate(109.753081, 231.714459)"><path style="stroke:none" d="M 2.0625 -4.765625 L 2.0625 -0.828125 L 2.734375 -0.578125 L 2.640625 0 L 0.359375 0 L 0.28125 -0.5625 L 0.953125 -0.828125 L 0.953125 -4.765625 L 0.28125 -5.046875 L 0.375 -5.59375 L 2.640625 -5.59375 L 2.734375 -5.03125 Z M 3.84375 0 L 3.921875 -0.4375 L 2.390625 -2.71875 L 2.390625 -3.140625 L 3.984375 -4.765625 L 3.484375 -5.03125 L 3.578125 -5.59375 L 5.5 -5.59375 L 5.59375 -5.03125 C 5.34375 -4.957031 5.128906 -4.863281 4.953125 -4.75 C 4.785156 -4.644531 4.65625 -4.546875 4.5625 -4.453125 L 3.140625 -3.015625 L 3.6875 -2.765625 L 5 -0.828125 L 5.703125 -0.5625 L 5.609375 0 Z M 3.84375 0 "/></g></g><g style="fill:#5e5e5e;fill-opacity:1;"><g transform="translate(119.89711, 231.714459)"><path style="stroke:none" d=""/></g></g><g style="fill:#5e5e5e;fill-opacity:1;"><g transform="translate(126.217109, 231.714459)"><path style="stroke:none" d="M 2.328125 -0.8125 L 2.328125 -2.0625 L 0.75 -4.765625 L 0.046875 -5.03125 L 0.125 -5.59375 L 2.515625 -5.59375 L 2.609375 -5.03125 L 2.015625 -4.765625 L 2.859375 -3.359375 L 2.859375 -2.859375 L 4.015625 -4.765625 L 3.421875 -5.03125 L 3.5 -5.59375 L 5.359375 -5.59375 L 5.4375 -5.03125 L 4.71875 -4.765625 L 3.4375 -2.578125 L 3.4375 -0.8125 L 4.09375 -0.5625 L 4 0 L 1.75 0 L 1.65625 -0.5625 Z M 2.328125 -0.8125 "/></g></g><g style="fill:#5e5e5e;fill-opacity:1;"><g transform="translate(136.017135, 231.714459)"><path style="stroke:none" d="M 3.234375 -5.734375 C 3.835938 -5.734375 4.34375 -5.601562 4.75 -5.34375 C 5.15625 -5.082031 5.460938 -4.726562 5.671875 -4.28125 C 5.878906 -3.84375 5.984375 -3.347656 5.984375 -2.796875 C 5.984375 -2.242188 5.890625 -1.742188 5.703125 -1.296875 C 5.515625 -0.859375 5.21875 -0.507812 4.8125 -0.25 C 4.40625 0.0078125 3.878906 0.140625 3.234375 0.140625 C 2.753906 0.140625 2.34375 0.0546875 2 -0.109375 C 1.65625 -0.273438 1.367188 -0.5 1.140625 -0.78125 C 0.921875 -1.0625 0.753906 -1.375 0.640625 -1.71875 C 0.535156 -2.070312 0.484375 -2.429688 0.484375 -2.796875 C 0.484375 -3.171875 0.539062 -3.53125 0.65625 -3.875 C 0.78125 -4.226562 0.957031 -4.539062 1.1875 -4.8125 C 1.425781 -5.09375 1.710938 -5.316406 2.046875 -5.484375 C 2.390625 -5.648438 2.785156 -5.734375 3.234375 -5.734375 Z M 3.234375 -5.0625 C 2.722656 -5.0625 2.335938 -4.878906 2.078125 -4.515625 C 1.816406 -4.148438 1.6875 -3.59375 1.6875 -2.84375 C 1.6875 -2.082031 1.816406 -1.503906 2.078125 -1.109375 C 2.335938 -0.722656 2.722656 -0.53125 3.234375 -0.53125 C 3.765625 -0.53125 4.160156 -0.726562 4.421875 -1.125 C 4.679688 -1.53125 4.8125 -2.101562 4.8125 -2.84375 C 4.8125 -3.570312 4.675781 -4.125 4.40625 -4.5 C 4.144531 -4.875 3.753906 -5.0625 3.234375 -5.0625 Z M 3.234375 -5.0625 "/></g></g><g style="fill:#5e5e5e;fill-opacity:1;"><g transform="translate(146.809164, 231.714459)"><path style="stroke:none" d="M 3.125 0.140625 C 2.851562 0.140625 2.582031 0.101562 2.3125 0.03125 C 2.050781 -0.0390625 1.8125 -0.164062 1.59375 -0.34375 C 1.382812 -0.519531 1.21875 -0.773438 1.09375 -1.109375 C 0.96875 -1.441406 0.90625 -1.867188 0.90625 -2.390625 L 0.90625 -4.765625 L 0.234375 -5.03125 L 0.3125 -5.59375 L 2.609375 -5.59375 L 2.6875 -5.03125 L 2.015625 -4.765625 L 2.015625 -2.34375 C 2.015625 -1.707031 2.113281 -1.242188 2.3125 -0.953125 C 2.519531 -0.671875 2.832031 -0.53125 3.25 -0.53125 C 3.675781 -0.53125 4.003906 -0.679688 4.234375 -0.984375 C 4.472656 -1.285156 4.59375 -1.734375 4.59375 -2.328125 L 4.59375 -4.765625 L 3.90625 -5.03125 L 4.015625 -5.59375 L 5.796875 -5.59375 L 5.875 -5.03125 L 5.203125 -4.765625 L 5.203125 -2.390625 C 5.203125 -1.867188 5.144531 -1.441406 5.03125 -1.109375 C 4.914062 -0.785156 4.753906 -0.53125 4.546875 -0.34375 C 4.347656 -0.164062 4.125 -0.0390625 3.875 0.03125 C 3.632812 0.101562 3.382812 0.140625 3.125 0.140625 Z M 3.125 0.140625 "/></g></g><g style="fill:#5e5e5e;fill-opacity:1;"><g transform="translate(157.129188, 231.714459)"><path style="stroke:none" d="M 2.0625 -5.03125 L 2.0625 -0.828125 L 2.734375 -0.5625 L 2.640625 0 L 0.390625 0 L 0.296875 -0.5625 L 0.953125 -0.8125 L 0.953125 -4.765625 L 0.28125 -5.03125 L 0.375 -5.59375 L 3.140625 -5.59375 C 3.742188 -5.59375 4.203125 -5.445312 4.515625 -5.15625 C 4.828125 -4.875 4.984375 -4.484375 4.984375 -3.984375 C 4.984375 -3.765625 4.929688 -3.566406 4.828125 -3.390625 C 4.734375 -3.210938 4.601562 -3.054688 4.4375 -2.921875 C 4.28125 -2.785156 4.101562 -2.679688 3.90625 -2.609375 C 3.707031 -2.535156 3.507812 -2.5 3.3125 -2.5 L 3.84375 -2.234375 L 4.640625 -0.8125 L 5.34375 -0.5625 L 5.25 0 L 3.5 0 L 3.578125 -0.4375 L 2.40625 -2.5 L 2.40625 -3.015625 L 2.90625 -3.015625 C 3.113281 -3.015625 3.289062 -3.0625 3.4375 -3.15625 C 3.59375 -3.25 3.707031 -3.375 3.78125 -3.53125 C 3.863281 -3.6875 3.90625 -3.835938 3.90625 -3.984375 C 3.90625 -4.285156 3.816406 -4.535156 3.640625 -4.734375 C 3.472656 -4.929688 3.207031 -5.03125 2.84375 -5.03125 Z M 2.0625 -5.03125 "/></g></g><g style="fill:#5e5e5e;fill-opacity:1;"><g transform="translate(166.969212, 231.714459)"><path style="stroke:none" d=""/></g></g><g style="fill:#5e5e5e;fill-opacity:1;"><g transform="translate(173.289211, 231.714459)"><path style="stroke:none" d="M 3.171875 -0.53125 C 3.285156 -0.53125 3.429688 -0.539062 3.609375 -0.5625 C 3.796875 -0.582031 3.957031 -0.609375 4.09375 -0.640625 L 4.5 -1.765625 L 5.0625 -1.6875 L 5.0625 -0.390625 C 4.914062 -0.273438 4.734375 -0.175781 4.515625 -0.09375 C 4.304688 -0.0195312 4.082031 0.0351562 3.84375 0.078125 C 3.613281 0.117188 3.390625 0.140625 3.171875 0.140625 C 2.648438 0.140625 2.203125 0.0546875 1.828125 -0.109375 C 1.460938 -0.273438 1.160156 -0.5 0.921875 -0.78125 C 0.691406 -1.0625 0.519531 -1.375 0.40625 -1.71875 C 0.289062 -2.070312 0.234375 -2.429688 0.234375 -2.796875 C 0.234375 -3.171875 0.296875 -3.53125 0.421875 -3.875 C 0.546875 -4.226562 0.726562 -4.539062 0.96875 -4.8125 C 1.21875 -5.09375 1.523438 -5.316406 1.890625 -5.484375 C 2.253906 -5.648438 2.679688 -5.734375 3.171875 -5.734375 C 3.523438 -5.734375 3.851562 -5.691406 4.15625 -5.609375 C 4.457031 -5.523438 4.757812 -5.394531 5.0625 -5.21875 L 5.0625 -3.96875 L 4.484375 -3.890625 L 4.125 -4.9375 C 3.976562 -4.976562 3.816406 -5.007812 3.640625 -5.03125 C 3.460938 -5.050781 3.304688 -5.0625 3.171875 -5.0625 C 2.617188 -5.0625 2.191406 -4.878906 1.890625 -4.515625 C 1.585938 -4.148438 1.4375 -3.59375 1.4375 -2.84375 C 1.4375 -2.570312 1.460938 -2.296875 1.515625 -2.015625 C 1.566406 -1.742188 1.65625 -1.492188 1.78125 -1.265625 C 1.914062 -1.046875 2.09375 -0.867188 2.3125 -0.734375 C 2.539062 -0.597656 2.828125 -0.53125 3.171875 -0.53125 Z M 3.171875 -0.53125 "/></g></g><g style="fill:#5e5e5e;fill-opacity:1;"><g transform="translate(182.801233, 231.714459)"><path style="stroke:none" d="M 3.234375 -5.734375 C 3.835938 -5.734375 4.34375 -5.601562 4.75 -5.34375 C 5.15625 -5.082031 5.460938 -4.726562 5.671875 -4.28125 C 5.878906 -3.84375 5.984375 -3.347656 5.984375 -2.796875 C 5.984375 -2.242188 5.890625 -1.742188 5.703125 -1.296875 C 5.515625 -0.859375 5.21875 -0.507812 4.8125 -0.25 C 4.40625 0.0078125 3.878906 0.140625 3.234375 0.140625 C 2.753906 0.140625 2.34375 0.0546875 2 -0.109375 C 1.65625 -0.273438 1.367188 -0.5 1.140625 -0.78125 C 0.921875 -1.0625 0.753906 -1.375 0.640625 -1.71875 C 0.535156 -2.070312 0.484375 -2.429688 0.484375 -2.796875 C 0.484375 -3.171875 0.539062 -3.53125 0.65625 -3.875 C 0.78125 -4.226562 0.957031 -4.539062 1.1875 -4.8125 C 1.425781 -5.09375 1.710938 -5.316406 2.046875 -5.484375 C 2.390625 -5.648438 2.785156 -5.734375 3.234375 -5.734375 Z M 3.234375 -5.0625 C 2.722656 -5.0625 2.335938 -4.878906 2.078125 -4.515625 C 1.816406 -4.148438 1.6875 -3.59375 1.6875 -2.84375 C 1.6875 -2.082031 1.816406 -1.503906 2.078125 -1.109375 C 2.335938 -0.722656 2.722656 -0.53125 3.234375 -0.53125 C 3.765625 -0.53125 4.160156 -0.726562 4.421875 -1.125 C 4.679688 -1.53125 4.8125 -2.101562 4.8125 -2.84375 C 4.8125 -3.570312 4.675781 -4.125 4.40625 -4.5 C 4.144531 -4.875 3.753906 -5.0625 3.234375 -5.0625 Z M 3.234375 -5.0625 "/></g></g><g style="fill:#5e5e5e;fill-opacity:1;"><g transform="translate(193.593262, 231.714459)"><path style="stroke:none" d="M 0.359375 -5.59375 L 2.640625 -5.59375 L 2.734375 -5.03125 L 2.0625 -4.765625 L 2.0625 -0.5625 L 3.59375 -0.5625 L 4.046875 -1.765625 L 4.609375 -1.6875 L 4.609375 0 L 0.359375 0 L 0.28125 -0.5625 L 0.953125 -0.828125 L 0.953125 -4.765625 L 0.28125 -5.03125 Z M 0.359375 -5.59375 "/></g></g><g style="fill:#5e5e5e;fill-opacity:1;"><g transform="translate(202.601286, 231.714459)"><path style="stroke:none" d="M 0.359375 -5.59375 L 2.640625 -5.59375 L 2.734375 -5.03125 L 2.0625 -4.765625 L 2.0625 -0.5625 L 3.59375 -0.5625 L 4.046875 -1.765625 L 4.609375 -1.6875 L 4.609375 0 L 0.359375 0 L 0.28125 -0.5625 L 0.953125 -0.828125 L 0.953125 -4.765625 L 0.28125 -5.03125 Z M 0.359375 -5.59375 "/></g></g><g style="fill:#5e5e5e;fill-opacity:1;"><g transform="translate(211.60929, 231.714459)"><path style="stroke:none" d="M 3.59375 -5.03125 L 2.0625 -5.03125 L 2.0625 -3.203125 L 2.875 -3.203125 L 3.125 -3.84375 L 3.703125 -3.765625 L 3.703125 -2 L 3.125 -1.921875 L 2.875 -2.5625 L 2.0625 -2.5625 L 2.0625 -0.5625 L 3.625 -0.5625 L 4.0625 -1.765625 L 4.625 -1.6875 L 4.625 0 L 0.375 0 L 0.296875 -0.5625 L 0.953125 -0.8125 L 0.953125 -4.765625 L 0.28125 -5.03125 L 0.375 -5.59375 L 4.484375 -5.59375 L 4.484375 -4.171875 L 3.90625 -4.09375 Z M 3.59375 -5.03125 "/></g></g><g style="fill:#5e5e5e;fill-opacity:1;"><g transform="translate(220.833318, 231.714459)"><path style="stroke:none" d="M 1.46875 -2.84375 C 1.46875 -2.570312 1.492188 -2.296875 1.546875 -2.015625 C 1.609375 -1.742188 1.707031 -1.492188 1.84375 -1.265625 C 1.988281 -1.046875 2.175781 -0.867188 2.40625 -0.734375 C 2.644531 -0.597656 2.929688 -0.53125 3.265625 -0.53125 C 3.378906 -0.53125 3.507812 -0.535156 3.65625 -0.546875 C 3.8125 -0.566406 3.945312 -0.59375 4.0625 -0.625 L 4.0625 -1.953125 L 3.40625 -2.21875 L 3.484375 -2.78125 L 5.765625 -2.78125 L 5.859375 -2.21875 L 5.171875 -1.9375 L 5.171875 -0.390625 C 5.023438 -0.273438 4.84375 -0.175781 4.625 -0.09375 C 4.414062 -0.0195312 4.191406 0.0351562 3.953125 0.078125 C 3.722656 0.117188 3.5 0.140625 3.28125 0.140625 C 2.757812 0.140625 2.3125 0.0546875 1.9375 -0.109375 C 1.5625 -0.273438 1.25 -0.5 1 -0.78125 C 0.75 -1.0625 0.566406 -1.375 0.453125 -1.71875 C 0.335938 -2.070312 0.28125 -2.429688 0.28125 -2.796875 C 0.28125 -3.210938 0.351562 -3.597656 0.5 -3.953125 C 0.644531 -4.304688 0.847656 -4.613281 1.109375 -4.875 C 1.378906 -5.144531 1.695312 -5.351562 2.0625 -5.5 C 2.425781 -5.65625 2.832031 -5.734375 3.28125 -5.734375 C 3.632812 -5.734375 3.960938 -5.6875 4.265625 -5.59375 C 4.578125 -5.507812 4.878906 -5.382812 5.171875 -5.21875 L 5.171875 -3.96875 L 4.609375 -3.875 L 4.234375 -4.921875 C 4.085938 -4.960938 3.925781 -4.992188 3.75 -5.015625 C 3.570312 -5.046875 3.414062 -5.0625 3.28125 -5.0625 C 2.851562 -5.0625 2.503906 -4.957031 2.234375 -4.75 C 1.972656 -4.539062 1.78125 -4.265625 1.65625 -3.921875 C 1.53125 -3.585938 1.46875 -3.226562 1.46875 -2.84375 Z M 1.46875 -2.84375 "/></g></g><g style="fill:#5e5e5e;fill-opacity:1;"><g transform="translate(231.209321, 231.714459)"><path style="stroke:none" d="M 3.59375 -5.03125 L 2.0625 -5.03125 L 2.0625 -3.203125 L 2.875 -3.203125 L 3.125 -3.84375 L 3.703125 -3.765625 L 3.703125 -2 L 3.125 -1.921875 L 2.875 -2.5625 L 2.0625 -2.5625 L 2.0625 -0.5625 L 3.625 -0.5625 L 4.0625 -1.765625 L 4.625 -1.6875 L 4.625 0 L 0.375 0 L 0.296875 -0.5625 L 0.953125 -0.8125 L 0.953125 -4.765625 L 0.28125 -5.03125 L 0.375 -5.59375 L 4.484375 -5.59375 L 4.484375 -4.171875 L 3.90625 -4.09375 Z M 3.59375 -5.03125 "/></g></g><g style="fill:#5e5e5e;fill-opacity:1;"><g transform="translate(240.433349, 231.714459)"><path style="stroke:none" d=""/></g></g><g style="fill:#5e5e5e;fill-opacity:1;"><g transform="translate(246.753348, 231.714459)"><path style="stroke:none" d="M 2.65625 -5.59375 L 3.53125 -5.734375 L 5.3125 -0.828125 L 6.03125 -0.5625 L 5.9375 0 L 3.609375 0 L 3.515625 -0.5625 L 4.15625 -0.828125 L 3.796875 -1.78125 L 1.921875 -1.78125 L 1.53125 -0.828125 L 2.28125 -0.578125 L 2.203125 0 L 0.203125 0 L 0.125 -0.5625 L 0.8125 -0.828125 Z M 3.5625 -2.40625 L 3.0625 -3.765625 L 3.0625 -4.6875 L 2.15625 -2.40625 Z M 3.5625 -2.40625 "/></g></g><g style="fill:#5e5e5e;fill-opacity:1;"><g transform="translate(257.161375, 231.714459)"><path style="stroke:none" d="M 2.078125 -5.03125 L 2.078125 -0.8125 L 2.984375 -0.5625 L 2.890625 0 L 0.390625 0 L 0.296875 -0.5625 L 0.96875 -0.8125 L 0.96875 -4.765625 L 0.28125 -5.03125 L 0.375 -5.59375 L 3.015625 -5.59375 C 3.617188 -5.59375 4.070312 -5.429688 4.375 -5.109375 C 4.675781 -4.785156 4.828125 -4.359375 4.828125 -3.828125 C 4.828125 -3.390625 4.726562 -3.046875 4.53125 -2.796875 C 4.34375 -2.546875 4.085938 -2.367188 3.765625 -2.265625 C 3.441406 -2.160156 3.097656 -2.109375 2.734375 -2.109375 L 2.40625 -2.109375 L 2.40625 -2.734375 L 2.75 -2.734375 C 2.957031 -2.734375 3.132812 -2.785156 3.28125 -2.890625 C 3.4375 -2.992188 3.550781 -3.128906 3.625 -3.296875 C 3.707031 -3.460938 3.75 -3.640625 3.75 -3.828125 C 3.75 -4.046875 3.71875 -4.242188 3.65625 -4.421875 C 3.59375 -4.609375 3.488281 -4.753906 3.34375 -4.859375 C 3.195312 -4.972656 3.003906 -5.03125 2.765625 -5.03125 Z M 2.078125 -5.03125 "/></g></g><g style="fill:#5e5e5e;fill-opacity:1;"><g transform="translate(266.553391, 231.714459)"><path style="stroke:none" d="M 2.078125 -5.03125 L 2.078125 -0.8125 L 2.984375 -0.5625 L 2.890625 0 L 0.390625 0 L 0.296875 -0.5625 L 0.96875 -0.8125 L 0.96875 -4.765625 L 0.28125 -5.03125 L 0.375 -5.59375 L 3.015625 -5.59375 C 3.617188 -5.59375 4.070312 -5.429688 4.375 -5.109375 C 4.675781 -4.785156 4.828125 -4.359375 4.828125 -3.828125 C 4.828125 -3.390625 4.726562 -3.046875 4.53125 -2.796875 C 4.34375 -2.546875 4.085938 -2.367188 3.765625 -2.265625 C 3.441406 -2.160156 3.097656 -2.109375 2.734375 -2.109375 L 2.40625 -2.109375 L 2.40625 -2.734375 L 2.75 -2.734375 C 2.957031 -2.734375 3.132812 -2.785156 3.28125 -2.890625 C 3.4375 -2.992188 3.550781 -3.128906 3.625 -3.296875 C 3.707031 -3.460938 3.75 -3.640625 3.75 -3.828125 C 3.75 -4.046875 3.71875 -4.242188 3.65625 -4.421875 C 3.59375 -4.609375 3.488281 -4.753906 3.34375 -4.859375 C 3.195312 -4.972656 3.003906 -5.03125 2.765625 -5.03125 Z M 2.078125 -5.03125 "/></g></g><g style="fill:#5e5e5e;fill-opacity:1;"><g transform="translate(275.945407, 231.714459)"><path style="stroke:none" d="M 0.359375 -5.59375 L 2.640625 -5.59375 L 2.734375 -5.03125 L 2.0625 -4.765625 L 2.0625 -0.5625 L 3.59375 -0.5625 L 4.046875 -1.765625 L 4.609375 -1.6875 L 4.609375 0 L 0.359375 0 L 0.28125 -0.5625 L 0.953125 -0.828125 L 0.953125 -4.765625 L 0.28125 -5.03125 Z M 0.359375 -5.59375 "/></g></g><g style="fill:#5e5e5e;fill-opacity:1;"><g transform="translate(284.953432, 231.714459)"><path style="stroke:none" d="M 2.265625 -4.765625 L 2.265625 -0.8125 L 2.9375 -0.5625 L 2.84375 0 L 0.578125 0 L 0.484375 -0.5625 L 1.15625 -0.8125 L 1.15625 -4.765625 L 0.484375 -5.03125 L 0.578125 -5.59375 L 2.84375 -5.59375 L 2.9375 -5.03125 Z M 2.265625 -4.765625 "/></g></g><g style="fill:#5e5e5e;fill-opacity:1;"><g transform="translate(292.69744, 231.714459)"><path style="stroke:none" d="M 3.171875 -0.53125 C 3.285156 -0.53125 3.429688 -0.539062 3.609375 -0.5625 C 3.796875 -0.582031 3.957031 -0.609375 4.09375 -0.640625 L 4.5 -1.765625 L 5.0625 -1.6875 L 5.0625 -0.390625 C 4.914062 -0.273438 4.734375 -0.175781 4.515625 -0.09375 C 4.304688 -0.0195312 4.082031 0.0351562 3.84375 0.078125 C 3.613281 0.117188 3.390625 0.140625 3.171875 0.140625 C 2.648438 0.140625 2.203125 0.0546875 1.828125 -0.109375 C 1.460938 -0.273438 1.160156 -0.5 0.921875 -0.78125 C 0.691406 -1.0625 0.519531 -1.375 0.40625 -1.71875 C 0.289062 -2.070312 0.234375 -2.429688 0.234375 -2.796875 C 0.234375 -3.171875 0.296875 -3.53125 0.421875 -3.875 C 0.546875 -4.226562 0.726562 -4.539062 0.96875 -4.8125 C 1.21875 -5.09375 1.523438 -5.316406 1.890625 -5.484375 C 2.253906 -5.648438 2.679688 -5.734375 3.171875 -5.734375 C 3.523438 -5.734375 3.851562 -5.691406 4.15625 -5.609375 C 4.457031 -5.523438 4.757812 -5.394531 5.0625 -5.21875 L 5.0625 -3.96875 L 4.484375 -3.890625 L 4.125 -4.9375 C 3.976562 -4.976562 3.816406 -5.007812 3.640625 -5.03125 C 3.460938 -5.050781 3.304688 -5.0625 3.171875 -5.0625 C 2.617188 -5.0625 2.191406 -4.878906 1.890625 -4.515625 C 1.585938 -4.148438 1.4375 -3.59375 1.4375 -2.84375 C 1.4375 -2.570312 1.460938 -2.296875 1.515625 -2.015625 C 1.566406 -1.742188 1.65625 -1.492188 1.78125 -1.265625 C 1.914062 -1.046875 2.09375 -0.867188 2.3125 -0.734375 C 2.539062 -0.597656 2.828125 -0.53125 3.171875 -0.53125 Z M 3.171875 -0.53125 "/></g></g><g style="fill:#5e5e5e;fill-opacity:1;"><g transform="translate(302.209452, 231.714459)"><path style="stroke:none" d="M 2.65625 -5.59375 L 3.53125 -5.734375 L 5.3125 -0.828125 L 6.03125 -0.5625 L 5.9375 0 L 3.609375 0 L 3.515625 -0.5625 L 4.15625 -0.828125 L 3.796875 -1.78125 L 1.921875 -1.78125 L 1.53125 -0.828125 L 2.28125 -0.578125 L 2.203125 0 L 0.203125 0 L 0.125 -0.5625 L 0.8125 -0.828125 Z M 3.5625 -2.40625 L 3.0625 -3.765625 L 3.0625 -4.6875 L 2.15625 -2.40625 Z M 3.5625 -2.40625 "/></g></g><g style="fill:#5e5e5e;fill-opacity:1;"><g transform="translate(312.617478, 231.714459)"><path style="stroke:none" d="M 0.3125 -3.96875 L 0.3125 -5.59375 L 5.109375 -5.59375 L 5.109375 -3.96875 L 4.546875 -3.875 L 4.125 -5.03125 L 3.265625 -5.03125 L 3.265625 -0.8125 L 3.9375 -0.5625 L 3.859375 0 L 1.5625 0 L 1.484375 -0.5625 L 2.15625 -0.8125 L 2.15625 -5.03125 L 1.3125 -5.03125 L 0.890625 -3.875 Z M 0.3125 -3.96875 "/></g></g><g style="fill:#5e5e5e;fill-opacity:1;"><g transform="translate(322.3695, 231.714459)"><path style="stroke:none" d="M 2.265625 -4.765625 L 2.265625 -0.8125 L 2.9375 -0.5625 L 2.84375 0 L 0.578125 0 L 0.484375 -0.5625 L 1.15625 -0.8125 L 1.15625 -4.765625 L 0.484375 -5.03125 L 0.578125 -5.59375 L 2.84375 -5.59375 L 2.9375 -5.03125 Z M 2.265625 -4.765625 "/></g></g><g style="fill:#5e5e5e;fill-opacity:1;"><g transform="translate(330.113508, 231.714459)"><path style="stroke:none" d="M 3.234375 -5.734375 C 3.835938 -5.734375 4.34375 -5.601562 4.75 -5.34375 C 5.15625 -5.082031 5.460938 -4.726562 5.671875 -4.28125 C 5.878906 -3.84375 5.984375 -3.347656 5.984375 -2.796875 C 5.984375 -2.242188 5.890625 -1.742188 5.703125 -1.296875 C 5.515625 -0.859375 5.21875 -0.507812 4.8125 -0.25 C 4.40625 0.0078125 3.878906 0.140625 3.234375 0.140625 C 2.753906 0.140625 2.34375 0.0546875 2 -0.109375 C 1.65625 -0.273438 1.367188 -0.5 1.140625 -0.78125 C 0.921875 -1.0625 0.753906 -1.375 0.640625 -1.71875 C 0.535156 -2.070312 0.484375 -2.429688 0.484375 -2.796875 C 0.484375 -3.171875 0.539062 -3.53125 0.65625 -3.875 C 0.78125 -4.226562 0.957031 -4.539062 1.1875 -4.8125 C 1.425781 -5.09375 1.710938 -5.316406 2.046875 -5.484375 C 2.390625 -5.648438 2.785156 -5.734375 3.234375 -5.734375 Z M 3.234375 -5.0625 C 2.722656 -5.0625 2.335938 -4.878906 2.078125 -4.515625 C 1.816406 -4.148438 1.6875 -3.59375 1.6875 -2.84375 C 1.6875 -2.082031 1.816406 -1.503906 2.078125 -1.109375 C 2.335938 -0.722656 2.722656 -0.53125 3.234375 -0.53125 C 3.765625 -0.53125 4.160156 -0.726562 4.421875 -1.125 C 4.679688 -1.53125 4.8125 -2.101562 4.8125 -2.84375 C 4.8125 -3.570312 4.675781 -4.125 4.40625 -4.5 C 4.144531 -4.875 3.753906 -5.0625 3.234375 -5.0625 Z M 3.234375 -5.0625 "/></g></g><g style="fill:#5e5e5e;fill-opacity:1;"><g transform="translate(340.905547, 231.714459)"><path style="stroke:none" d="M 0.203125 -0.5625 L 0.859375 -0.828125 L 0.859375 -4.765625 L 0.1875 -5.03125 L 0.265625 -5.59375 L 1.9375 -5.59375 L 4.1875 -2.28125 L 4.46875 -1.453125 L 4.46875 -4.765625 L 3.8125 -5.03125 L 3.890625 -5.59375 L 5.671875 -5.59375 L 5.75 -5.03125 L 5.09375 -4.765625 L 5.09375 0 L 4.421875 0.140625 L 1.484375 -4.25 L 1.484375 -0.8125 L 2.140625 -0.5625 L 2.0625 0 L 0.28125 0 Z M 0.203125 -0.5625 "/></g></g><g style="fill:#5e5e5e;fill-opacity:1;"><g transform="translate(126.379643, 185.667513)"><path style="stroke:none" d="M 4.859375 -6.796875 L 2.78125 -6.796875 L 2.78125 -4.328125 L 3.890625 -4.328125 L 4.21875 -5.203125 L 5 -5.09375 L 5 -2.703125 L 4.234375 -2.59375 L 3.890625 -3.46875 L 2.78125 -3.46875 L 2.78125 -0.765625 L 4.90625 -0.765625 L 5.484375 -2.390625 L 6.25 -2.28125 L 6.25 0 L 0.515625 0 L 0.40625 -0.765625 L 1.28125 -1.109375 L 1.28125 -6.4375 L 0.375 -6.796875 L 0.5 -7.5625 L 6.0625 -7.5625 L 6.0625 -5.640625 L 5.28125 -5.53125 Z M 4.859375 -6.796875 "/></g></g><g style="fill:#5e5e5e;fill-opacity:1;"><g transform="translate(138.840965, 185.667513)"><path style="stroke:none" d="M 0.546875 -5.703125 C 0.546875 -6.160156 0.664062 -6.539062 0.90625 -6.84375 C 1.15625 -7.144531 1.476562 -7.367188 1.875 -7.515625 C 2.28125 -7.671875 2.710938 -7.75 3.171875 -7.75 C 3.597656 -7.75 4.007812 -7.679688 4.40625 -7.546875 C 4.800781 -7.421875 5.164062 -7.257812 5.5 -7.0625 L 5.5 -5.375 L 4.71875 -5.25 L 4.203125 -6.703125 C 4.054688 -6.742188 3.890625 -6.773438 3.703125 -6.796875 C 3.515625 -6.828125 3.335938 -6.84375 3.171875 -6.84375 C 2.773438 -6.84375 2.460938 -6.757812 2.234375 -6.59375 C 2.015625 -6.425781 1.90625 -6.1875 1.90625 -5.875 C 1.90625 -5.6875 1.96875 -5.515625 2.09375 -5.359375 C 2.226562 -5.203125 2.394531 -5.066406 2.59375 -4.953125 C 2.789062 -4.835938 2.984375 -4.738281 3.171875 -4.65625 C 3.359375 -4.582031 3.5 -4.519531 3.59375 -4.46875 C 3.976562 -4.3125 4.335938 -4.117188 4.671875 -3.890625 C 5.003906 -3.671875 5.273438 -3.40625 5.484375 -3.09375 C 5.703125 -2.78125 5.8125 -2.410156 5.8125 -1.984375 C 5.8125 -1.347656 5.578125 -0.828125 5.109375 -0.421875 C 4.640625 -0.015625 3.925781 0.1875 2.96875 0.1875 C 2.519531 0.1875 2.082031 0.125 1.65625 0 C 1.238281 -0.125 0.878906 -0.296875 0.578125 -0.515625 L 0.578125 -2.265625 L 1.34375 -2.375 L 1.890625 -0.96875 C 2.015625 -0.90625 2.175781 -0.847656 2.375 -0.796875 C 2.582031 -0.742188 2.753906 -0.71875 2.890625 -0.71875 C 3.328125 -0.71875 3.695312 -0.800781 4 -0.96875 C 4.3125 -1.132812 4.46875 -1.359375 4.46875 -1.640625 C 4.46875 -1.859375 4.398438 -2.046875 4.265625 -2.203125 C 4.128906 -2.367188 3.953125 -2.515625 3.734375 -2.640625 C 3.515625 -2.773438 3.289062 -2.890625 3.0625 -2.984375 C 2.832031 -3.085938 2.625 -3.1875 2.4375 -3.28125 C 2.226562 -3.382812 2.007812 -3.5 1.78125 -3.625 C 1.5625 -3.75 1.359375 -3.898438 1.171875 -4.078125 C 0.984375 -4.253906 0.832031 -4.472656 0.71875 -4.734375 C 0.601562 -5.003906 0.546875 -5.328125 0.546875 -5.703125 Z M 0.546875 -5.703125 "/></g></g><g style="fill:#5e5e5e;fill-opacity:1;"><g transform="translate(150.967342, 185.667513)"><path style="stroke:none" d="M 0.4375 -5.359375 L 0.4375 -7.5625 L 6.90625 -7.5625 L 6.90625 -5.359375 L 6.140625 -5.25 L 5.5625 -6.796875 L 4.40625 -6.796875 L 4.40625 -1.109375 L 5.3125 -0.765625 L 5.21875 0 L 2.125 0 L 2.015625 -0.765625 L 2.921875 -1.109375 L 2.921875 -6.796875 L 1.765625 -6.796875 L 1.203125 -5.25 Z M 0.4375 -5.359375 "/></g></g><g style="fill:#5e5e5e;fill-opacity:1;"><g transform="translate(164.141768, 185.667513)"><path style="stroke:none" d="M 1.265625 -1.296875 C 1.472656 -1.296875 1.648438 -1.222656 1.796875 -1.078125 C 1.941406 -0.929688 2.015625 -0.757812 2.015625 -0.5625 C 2.015625 -0.363281 1.941406 -0.1875 1.796875 -0.03125 C 1.648438 0.113281 1.472656 0.1875 1.265625 0.1875 C 1.066406 0.1875 0.894531 0.113281 0.75 -0.03125 C 0.601562 -0.1875 0.53125 -0.363281 0.53125 -0.5625 C 0.53125 -0.757812 0.601562 -0.929688 0.75 -1.078125 C 0.894531 -1.222656 1.066406 -1.296875 1.265625 -1.296875 Z M 1.265625 -1.296875 "/></g></g><g style="fill:#5e5e5e;fill-opacity:1;"><g transform="translate(172.540541, 185.667513)"><path style="stroke:none" d=""/></g></g><g style="fill:#5e5e5e;fill-opacity:1;"><g transform="translate(181.079767, 185.667513)"><path style="stroke:none" d="M 7.1875 -5.265625 L 5.265625 0 L 4.453125 0.1875 L 2.5625 -5 L 2.078125 -1.109375 L 2.953125 -0.765625 L 2.84375 0 L 0.4375 0 L 0.3125 -0.765625 L 1.234375 -1.109375 L 1.859375 -6.4375 L 0.96875 -6.796875 L 1.078125 -7.5625 L 3.25 -7.5625 L 5 -2.84375 L 5 -1.765625 L 7.140625 -7.5625 L 9.375 -7.5625 L 9.5 -6.796875 L 8.59375 -6.4375 L 9.109375 -1.109375 L 10.015625 -0.765625 L 9.90625 0 L 6.84375 0 L 6.734375 -0.765625 L 7.609375 -1.109375 Z M 7.1875 -5.265625 "/></g></g><g style="fill:#5e5e5e;fill-opacity:1;"><g transform="translate(197.344326, 185.667513)"><path style="stroke:none" d="M 7.1875 -5.265625 L 5.265625 0 L 4.453125 0.1875 L 2.5625 -5 L 2.078125 -1.109375 L 2.953125 -0.765625 L 2.84375 0 L 0.4375 0 L 0.3125 -0.765625 L 1.234375 -1.109375 L 1.859375 -6.4375 L 0.96875 -6.796875 L 1.078125 -7.5625 L 3.25 -7.5625 L 5 -2.84375 L 5 -1.765625 L 7.140625 -7.5625 L 9.375 -7.5625 L 9.5 -6.796875 L 8.59375 -6.4375 L 9.109375 -1.109375 L 10.015625 -0.765625 L 9.90625 0 L 6.84375 0 L 6.734375 -0.765625 L 7.609375 -1.109375 Z M 7.1875 -5.265625 "/></g></g><g style="fill:#5e5e5e;fill-opacity:1;"><g transform="translate(213.608886, 185.667513)"><path style="stroke:none" d="M 3.703125 -3 L 2.140625 -1.109375 L 2.890625 -0.765625 L 2.765625 0 L 0.234375 0 L 0.125 -0.765625 L 1.046875 -1.109375 L 3.03125 -3.515625 L 1.046875 -6.4375 L 0.109375 -6.796875 L 0.234375 -7.5625 L 3.515625 -7.5625 L 3.625 -6.796875 L 2.828125 -6.4375 L 3.828125 -5.0625 L 3.828125 -4.578125 L 5.375 -6.4375 L 4.65625 -6.796875 L 4.75 -7.5625 L 7.3125 -7.5625 L 7.421875 -6.796875 L 6.453125 -6.4375 L 4.5 -4.015625 L 6.46875 -1.109375 L 7.40625 -0.765625 L 7.28125 0 L 4.015625 0 L 3.90625 -0.765625 L 4.6875 -1.109375 L 3.703125 -2.46875 Z M 3.703125 -3 "/></g></g><g style="fill:#5e5e5e;fill-opacity:1;"><g transform="translate(226.977793, 185.667513)"><path style="stroke:none" d="M 3.703125 -3 L 2.140625 -1.109375 L 2.890625 -0.765625 L 2.765625 0 L 0.234375 0 L 0.125 -0.765625 L 1.046875 -1.109375 L 3.03125 -3.515625 L 1.046875 -6.4375 L 0.109375 -6.796875 L 0.234375 -7.5625 L 3.515625 -7.5625 L 3.625 -6.796875 L 2.828125 -6.4375 L 3.828125 -5.0625 L 3.828125 -4.578125 L 5.375 -6.4375 L 4.65625 -6.796875 L 4.75 -7.5625 L 7.3125 -7.5625 L 7.421875 -6.796875 L 6.453125 -6.4375 L 4.5 -4.015625 L 6.46875 -1.109375 L 7.40625 -0.765625 L 7.28125 0 L 4.015625 0 L 3.90625 -0.765625 L 4.6875 -1.109375 L 3.703125 -2.46875 Z M 3.703125 -3 "/></g></g><g style="fill:#5e5e5e;fill-opacity:1;"><g transform="translate(240.346701, 185.667513)"><path style="stroke:none" d="M 6.75 -6.4375 L 4.375 0 L 3.546875 0.1875 L 1.015625 -6.4375 L 0.046875 -6.796875 L 0.1875 -7.5625 L 3.328125 -7.5625 L 3.453125 -6.796875 L 2.609375 -6.4375 L 4.015625 -2.84375 L 4.015625 -1.578125 L 5.875 -6.4375 L 5.015625 -6.796875 L 5.140625 -7.5625 L 7.59375 -7.5625 L 7.703125 -6.796875 Z M 6.75 -6.4375 "/></g></g></g></svg>