<svg xmlns="http://www.w3.org/2000/svg" xmlns:xlink="http://www.w3.org/1999/xlink" width="200" zoomAndPan="magnify" viewBox="0 0 150 30.750001" height="41" preserveAspectRatio="xMidYMid meet" version="1.2"><defs><clipPath id="fe7c6bfb81"><path d="M 41 17 L 135.035156 17 L 135.035156 18 L 41 18 Z M 41 17 "/></clipPath><clipPath id="133539cf0b"><path d="M 15.039062 27.308594 L 15.796875 27.308594 L 15.796875 28.03125 L 15.039062 28.03125 Z M 15.039062 27.308594 "/></clipPath><clipPath id="cce1301fbf"><path d="M 15.417969 27.308594 L 15.507812 27.585938 L 15.796875 27.585938 L 15.5625 27.753906 L 15.652344 28.03125 L 15.417969 27.859375 L 15.183594 28.03125 L 15.273438 27.753906 L 15.039062 27.585938 L 15.328125 27.585938 Z M 15.417969 27.308594 "/></clipPath><clipPath id="14550c333e"><path d="M 16.3125 3.292969 L 27.660156 3.292969 L 27.660156 10 L 16.3125 10 Z M 16.3125 3.292969 "/></clipPath><clipPath id="5107bc09fb"><path d="M 27.660156 8.109375 L 27.660156 3.835938 C 27.660156 3.535156 27.414062 3.292969 27.117188 3.292969 L 23.328125 3.292969 C 21.953125 3.292969 21.984375 4.582031 21.984375 4.632812 C 21.984375 4.578125 21.921875 3.292969 20.644531 3.292969 L 16.855469 3.292969 C 16.554688 3.292969 16.3125 3.535156 16.3125 3.835938 L 16.3125 8.117188 C 16.3125 8.414062 16.554688 8.660156 16.855469 8.660156 L 20.644531 8.660156 C 21.921875 8.660156 21.984375 9.949219 21.984375 10 C 21.984375 9.945312 21.953125 8.660156 23.328125 8.660156 L 27.117188 8.660156 C 27.414062 8.660156 27.660156 8.417969 27.660156 8.117188 Z M 27.660156 8.109375 "/></clipPath></defs><g id="0f5be6745c"><g clip-rule="nonzero" clip-path="url(#fe7c6bfb81)"><path style="fill:none;stroke-width:0.97;stroke-linecap:butt;stroke-linejoin:miter;stroke:#ffffff;stroke-opacity:1;stroke-miterlimit:4;" d="M 706.677715 82.252839 L 168.234449 82.252839 " transform="matrix(0.205867,0,0,0.205867,6.647342,0.551236)"/></g><g style="fill:#ffffff;fill-opacity:1;"><g transform="translate(40.864864, 14.781465)"><path style="stroke:none" d="M 5.203125 0 L 0.46875 0 L 0.484375 -0.109375 C 0.796875 -0.109375 1.023438 -0.171875 1.171875 -0.296875 C 1.328125 -0.421875 1.40625 -1.03125 1.40625 -2.125 L 1.40625 -4.453125 C 1.40625 -5.117188 1.382812 -5.578125 1.34375 -5.828125 C 1.300781 -6.078125 1.242188 -6.234375 1.171875 -6.296875 C 1.023438 -6.410156 0.796875 -6.46875 0.484375 -6.46875 L 0.46875 -6.578125 L 4.859375 -6.578125 L 4.859375 -5.21875 L 4.75 -5.234375 C 4.75 -5.660156 4.523438 -5.953125 4.078125 -6.109375 C 3.640625 -6.273438 2.96875 -6.359375 2.0625 -6.359375 L 2.0625 -3.40625 C 2.65625 -3.40625 3.082031 -3.4375 3.34375 -3.5 C 3.613281 -3.5625 3.785156 -3.65625 3.859375 -3.78125 C 3.929688 -3.90625 3.96875 -4.117188 3.96875 -4.421875 L 4.078125 -4.4375 L 4.078125 -2.15625 L 3.96875 -2.171875 C 3.96875 -2.484375 3.929688 -2.703125 3.859375 -2.828125 C 3.785156 -2.953125 3.613281 -3.039062 3.34375 -3.09375 C 3.082031 -3.15625 2.65625 -3.1875 2.0625 -3.1875 L 2.0625 -1.984375 C 2.0625 -1.316406 2.082031 -0.875 2.125 -0.65625 C 2.175781 -0.4375 2.28125 -0.289062 2.4375 -0.21875 C 4.207031 -0.21875 5.09375 -0.59375 5.09375 -1.34375 L 5.203125 -1.359375 Z M 5.203125 0 "/></g></g><g style="fill:#ffffff;fill-opacity:1;"><g transform="translate(46.643464, 14.781465)"><path style="stroke:none" d="M 2.359375 -6.578125 C 3.441406 -6.578125 4.253906 -6.484375 4.796875 -6.296875 C 5.035156 -6.203125 5.289062 -6.070312 5.5625 -5.90625 C 5.84375 -5.75 6.066406 -5.554688 6.234375 -5.328125 C 6.410156 -5.109375 6.554688 -4.820312 6.671875 -4.46875 C 6.785156 -4.113281 6.84375 -3.71875 6.84375 -3.28125 C 6.84375 -2.851562 6.785156 -2.460938 6.671875 -2.109375 C 6.554688 -1.765625 6.410156 -1.476562 6.234375 -1.25 C 6.066406 -1.03125 5.851562 -0.835938 5.59375 -0.671875 C 5.34375 -0.503906 5.101562 -0.378906 4.875 -0.296875 C 4.65625 -0.210938 4.40625 -0.148438 4.125 -0.109375 C 3.757812 -0.0351562 3.382812 0 3 0 L 0.46875 0 L 0.484375 -0.109375 C 0.796875 -0.109375 1.023438 -0.171875 1.171875 -0.296875 C 1.328125 -0.421875 1.40625 -1.03125 1.40625 -2.125 L 1.40625 -4.453125 C 1.40625 -5.117188 1.382812 -5.578125 1.34375 -5.828125 C 1.300781 -6.078125 1.242188 -6.234375 1.171875 -6.296875 C 1.023438 -6.410156 0.796875 -6.46875 0.484375 -6.46875 L 0.46875 -6.578125 Z M 2.40625 -0.21875 C 2.488281 -0.21875 2.644531 -0.21875 2.875 -0.21875 C 3.113281 -0.21875 3.367188 -0.238281 3.640625 -0.28125 C 3.921875 -0.332031 4.207031 -0.425781 4.5 -0.5625 C 4.800781 -0.707031 5.0625 -0.890625 5.28125 -1.109375 C 5.5 -1.335938 5.675781 -1.632812 5.8125 -2 C 5.957031 -2.375 6.03125 -2.800781 6.03125 -3.28125 C 6.03125 -3.757812 5.957031 -4.179688 5.8125 -4.546875 C 5.675781 -4.921875 5.5 -5.21875 5.28125 -5.4375 C 5.0625 -5.664062 4.804688 -5.847656 4.515625 -5.984375 C 3.992188 -6.234375 3.421875 -6.359375 2.796875 -6.359375 C 2.515625 -6.359375 2.269531 -6.335938 2.0625 -6.296875 L 2.0625 -2.015625 C 2.0625 -1.335938 2.078125 -0.890625 2.109375 -0.671875 C 2.148438 -0.453125 2.25 -0.300781 2.40625 -0.21875 Z M 2.40625 -0.21875 "/></g></g><g style="fill:#ffffff;fill-opacity:1;"><g transform="translate(53.810435, 14.781465)"><path style="stroke:none" d="M 6.21875 -4.4375 L 6.21875 -2.59375 C 6.21875 -2.175781 6.164062 -1.804688 6.0625 -1.484375 C 5.957031 -1.160156 5.820312 -0.898438 5.65625 -0.703125 C 5.5 -0.503906 5.304688 -0.34375 5.078125 -0.21875 C 4.691406 -0.0078125 4.253906 0.09375 3.765625 0.09375 C 2.066406 0.09375 1.21875 -0.769531 1.21875 -2.5 L 1.21875 -4.453125 C 1.21875 -5.117188 1.195312 -5.570312 1.15625 -5.8125 C 1.113281 -6.0625 1.054688 -6.21875 0.984375 -6.28125 C 0.835938 -6.394531 0.609375 -6.453125 0.296875 -6.453125 L 0.28125 -6.578125 L 2.8125 -6.578125 L 2.78125 -6.453125 C 2.632812 -6.453125 2.515625 -6.445312 2.421875 -6.4375 C 2.335938 -6.425781 2.253906 -6.390625 2.171875 -6.328125 C 2.097656 -6.273438 2.046875 -6.210938 2.015625 -6.140625 C 1.984375 -6.066406 1.953125 -5.945312 1.921875 -5.78125 C 1.890625 -5.5625 1.875 -5.117188 1.875 -4.453125 L 1.875 -2.453125 C 1.875 -1.660156 2.050781 -1.082031 2.40625 -0.71875 C 2.769531 -0.351562 3.253906 -0.171875 3.859375 -0.171875 C 4.472656 -0.171875 4.976562 -0.367188 5.375 -0.765625 C 5.78125 -1.160156 5.984375 -1.765625 5.984375 -2.578125 L 5.984375 -4.4375 C 5.984375 -5.0625 5.953125 -5.507812 5.890625 -5.78125 C 5.835938 -6.0625 5.742188 -6.242188 5.609375 -6.328125 C 5.484375 -6.410156 5.269531 -6.453125 4.96875 -6.453125 L 4.953125 -6.578125 L 7.265625 -6.578125 L 7.234375 -6.453125 C 6.929688 -6.453125 6.710938 -6.410156 6.578125 -6.328125 C 6.453125 -6.242188 6.359375 -6.0625 6.296875 -5.78125 C 6.242188 -5.507812 6.21875 -5.0625 6.21875 -4.4375 Z M 6.21875 -4.4375 "/></g></g><g style="fill:#ffffff;fill-opacity:1;"><g transform="translate(61.240064, 14.781465)"><path style="stroke:none" d="M 5.359375 -1.84375 C 5.359375 -1.21875 5.117188 -0.753906 4.640625 -0.453125 C 4.160156 -0.148438 3.503906 0 2.671875 0 L 0.46875 0 L 0.484375 -0.109375 C 0.640625 -0.109375 0.757812 -0.113281 0.84375 -0.125 C 0.9375 -0.144531 1.019531 -0.179688 1.09375 -0.234375 C 1.175781 -0.285156 1.234375 -0.347656 1.265625 -0.421875 C 1.304688 -0.492188 1.335938 -0.613281 1.359375 -0.78125 C 1.390625 -1.007812 1.40625 -1.457031 1.40625 -2.125 L 1.40625 -4.453125 C 1.40625 -5.390625 1.363281 -5.953125 1.28125 -6.140625 C 1.238281 -6.210938 1.175781 -6.273438 1.09375 -6.328125 C 1.019531 -6.390625 0.9375 -6.425781 0.84375 -6.4375 C 0.757812 -6.445312 0.640625 -6.453125 0.484375 -6.453125 L 0.46875 -6.578125 L 2.578125 -6.578125 C 3.035156 -6.578125 3.503906 -6.492188 3.984375 -6.328125 C 4.253906 -6.242188 4.472656 -6.09375 4.640625 -5.875 C 4.804688 -5.65625 4.890625 -5.394531 4.890625 -5.09375 C 4.890625 -4.664062 4.738281 -4.332031 4.4375 -4.09375 C 4.132812 -3.863281 3.773438 -3.703125 3.359375 -3.609375 C 3.847656 -3.554688 4.285156 -3.40625 4.671875 -3.15625 C 4.878906 -3.019531 5.046875 -2.835938 5.171875 -2.609375 C 5.296875 -2.378906 5.359375 -2.125 5.359375 -1.84375 Z M 4.078125 -5.09375 C 4.078125 -5.9375 3.40625 -6.359375 2.0625 -6.359375 L 2.0625 -3.671875 L 2.15625 -3.671875 C 3.4375 -3.671875 4.078125 -4.144531 4.078125 -5.09375 Z M 4.546875 -1.84375 C 4.546875 -2.9375 3.765625 -3.484375 2.203125 -3.484375 L 2.0625 -3.484375 L 2.0625 -1.984375 C 2.0625 -1.296875 2.082031 -0.847656 2.125 -0.640625 C 2.164062 -0.429688 2.269531 -0.289062 2.4375 -0.21875 C 2.75 -0.21875 3.035156 -0.253906 3.296875 -0.328125 C 3.566406 -0.398438 3.78125 -0.488281 3.9375 -0.59375 C 4.09375 -0.707031 4.234375 -0.867188 4.359375 -1.078125 C 4.484375 -1.296875 4.546875 -1.550781 4.546875 -1.84375 Z M 4.546875 -1.84375 "/></g></g><g style="fill:#ffffff;fill-opacity:1;"><g transform="translate(67.037428, 14.781465)"><path style="stroke:none" d="M 4.171875 -2.375 L 1.09375 -2.375 L 1.09375 -2.21875 C 1.09375 -1.550781 1.234375 -1.039062 1.515625 -0.6875 C 1.796875 -0.34375 2.144531 -0.171875 2.5625 -0.171875 C 3.1875 -0.171875 3.640625 -0.421875 3.921875 -0.921875 L 4.0625 -0.859375 C 3.726562 -0.222656 3.179688 0.09375 2.421875 0.09375 C 1.859375 0.09375 1.375 -0.109375 0.96875 -0.515625 C 0.570312 -0.921875 0.375 -1.46875 0.375 -2.15625 C 0.375 -2.851562 0.550781 -3.421875 0.90625 -3.859375 C 1.257812 -4.304688 1.734375 -4.53125 2.328125 -4.53125 C 2.921875 -4.53125 3.375 -4.328125 3.6875 -3.921875 C 4.007812 -3.523438 4.171875 -3.007812 4.171875 -2.375 Z M 2.34375 -4.34375 C 1.976562 -4.34375 1.691406 -4.1875 1.484375 -3.875 C 1.273438 -3.570312 1.148438 -3.160156 1.109375 -2.640625 L 3.453125 -2.640625 C 3.398438 -3.773438 3.03125 -4.34375 2.34375 -4.34375 Z M 2.34375 -4.34375 "/></g></g><g style="fill:#ffffff;fill-opacity:1;"><g transform="translate(71.671562, 14.781465)"><path style="stroke:none" d="M 1.890625 -4.53125 L 1.890625 -2.859375 C 1.941406 -3.304688 2.09375 -3.695312 2.34375 -4.03125 C 2.601562 -4.363281 2.945312 -4.53125 3.375 -4.53125 C 4.332031 -4.53125 4.8125 -4.03125 4.8125 -3.03125 L 4.8125 -1.546875 C 4.8125 -0.898438 4.851562 -0.5 4.9375 -0.34375 C 5.03125 -0.1875 5.253906 -0.109375 5.609375 -0.109375 L 5.640625 0 L 3.359375 0 L 3.375 -0.109375 C 3.75 -0.109375 3.972656 -0.1875 4.046875 -0.34375 C 4.117188 -0.5 4.15625 -0.929688 4.15625 -1.640625 L 4.15625 -2.9375 C 4.15625 -3.375 4.085938 -3.703125 3.953125 -3.921875 C 3.816406 -4.140625 3.601562 -4.25 3.3125 -4.25 C 3.03125 -4.25 2.789062 -4.148438 2.59375 -3.953125 C 2.394531 -3.753906 2.25 -3.503906 2.15625 -3.203125 C 1.976562 -2.617188 1.890625 -2.03125 1.890625 -1.4375 C 1.890625 -0.851562 1.925781 -0.484375 2 -0.328125 C 2.082031 -0.179688 2.304688 -0.109375 2.671875 -0.109375 L 2.6875 0 L 0.40625 0 L 0.421875 -0.109375 C 0.796875 -0.109375 1.023438 -0.1875 1.109375 -0.34375 C 1.191406 -0.5 1.234375 -0.90625 1.234375 -1.5625 L 1.234375 -2.3125 C 1.234375 -3.257812 1.1875 -3.828125 1.09375 -4.015625 C 1.0625 -4.085938 1.003906 -4.148438 0.921875 -4.203125 C 0.847656 -4.265625 0.765625 -4.300781 0.671875 -4.3125 C 0.578125 -4.320312 0.453125 -4.328125 0.296875 -4.328125 L 0.28125 -4.4375 C 0.820312 -4.5 1.359375 -4.53125 1.890625 -4.53125 Z M 1.890625 -4.53125 "/></g></g><g style="fill:#ffffff;fill-opacity:1;"><g transform="translate(77.581491, 14.781465)"><path style="stroke:none" d="M 2.390625 0.09375 C 1.835938 0.09375 1.363281 -0.109375 0.96875 -0.515625 C 0.570312 -0.921875 0.375 -1.472656 0.375 -2.171875 C 0.375 -2.867188 0.550781 -3.4375 0.90625 -3.875 C 1.269531 -4.3125 1.785156 -4.53125 2.453125 -4.53125 C 2.867188 -4.53125 3.226562 -4.460938 3.53125 -4.328125 C 3.832031 -4.191406 3.984375 -4.007812 3.984375 -3.78125 C 3.984375 -3.5625 3.867188 -3.453125 3.640625 -3.453125 C 3.523438 -3.453125 3.425781 -3.5 3.34375 -3.59375 C 3.269531 -3.6875 3.210938 -3.785156 3.171875 -3.890625 C 3.128906 -4.003906 3.046875 -4.109375 2.921875 -4.203125 C 2.804688 -4.296875 2.648438 -4.34375 2.453125 -4.34375 C 2.003906 -4.34375 1.664062 -4.15625 1.4375 -3.78125 C 1.207031 -3.40625 1.09375 -2.890625 1.09375 -2.234375 C 1.09375 -1.585938 1.226562 -1.082031 1.5 -0.71875 C 1.78125 -0.351562 2.125 -0.171875 2.53125 -0.171875 C 3.144531 -0.171875 3.582031 -0.421875 3.84375 -0.921875 L 3.984375 -0.859375 C 3.671875 -0.222656 3.140625 0.09375 2.390625 0.09375 Z M 2.390625 0.09375 "/></g></g><g style="fill:#ffffff;fill-opacity:1;"><g transform="translate(81.802874, 14.781465)"><path style="stroke:none" d="M 1.84375 -6.90625 L 1.84375 -2.859375 C 1.894531 -3.304688 2.046875 -3.695312 2.296875 -4.03125 C 2.554688 -4.363281 2.898438 -4.53125 3.328125 -4.53125 C 4.285156 -4.53125 4.765625 -4.03125 4.765625 -3.03125 L 4.765625 -1.546875 C 4.765625 -0.898438 4.804688 -0.5 4.890625 -0.34375 C 4.984375 -0.1875 5.207031 -0.109375 5.5625 -0.109375 L 5.59375 0 L 3.3125 0 L 3.328125 -0.109375 C 3.703125 -0.109375 3.925781 -0.1875 4 -0.34375 C 4.070312 -0.5 4.109375 -0.929688 4.109375 -1.640625 L 4.109375 -2.9375 C 4.109375 -3.375 4.039062 -3.703125 3.90625 -3.921875 C 3.769531 -4.140625 3.554688 -4.25 3.265625 -4.25 C 2.984375 -4.25 2.742188 -4.148438 2.546875 -3.953125 C 2.347656 -3.753906 2.203125 -3.503906 2.109375 -3.203125 C 1.929688 -2.617188 1.84375 -2.03125 1.84375 -1.4375 C 1.84375 -0.851562 1.878906 -0.484375 1.953125 -0.328125 C 2.035156 -0.179688 2.257812 -0.109375 2.625 -0.109375 L 2.640625 0 L 0.359375 0 L 0.375 -0.109375 C 0.75 -0.109375 0.976562 -0.1875 1.0625 -0.34375 C 1.144531 -0.5 1.1875 -0.90625 1.1875 -1.5625 L 1.1875 -4.6875 C 1.1875 -5.632812 1.140625 -6.203125 1.046875 -6.390625 C 1.015625 -6.460938 0.957031 -6.523438 0.875 -6.578125 C 0.800781 -6.640625 0.71875 -6.675781 0.625 -6.6875 C 0.53125 -6.695312 0.40625 -6.703125 0.25 -6.703125 L 0.234375 -6.8125 C 0.773438 -6.875 1.3125 -6.90625 1.84375 -6.90625 Z M 1.84375 -6.90625 "/></g></g><g style="fill:#ffffff;fill-opacity:1;"><g transform="translate(41.608816, 22.640929)"><path style="stroke:none" d="M 0.28125 -0.71875 C 0.28125 -0.5 0.332031 -0.332031 0.4375 -0.21875 C 0.539062 -0.101562 0.671875 -0.046875 0.828125 -0.046875 C 0.984375 -0.046875 1.109375 -0.0820312 1.203125 -0.15625 C 1.304688 -0.226562 1.359375 -0.347656 1.359375 -0.515625 C 1.359375 -0.660156 1.28125 -0.789062 1.125 -0.90625 C 1.0625 -0.957031 0.988281 -1.003906 0.90625 -1.046875 C 0.820312 -1.097656 0.738281 -1.148438 0.65625 -1.203125 C 0.570312 -1.253906 0.492188 -1.304688 0.421875 -1.359375 C 0.265625 -1.492188 0.1875 -1.644531 0.1875 -1.8125 C 0.1875 -1.988281 0.25 -2.128906 0.375 -2.234375 C 0.507812 -2.335938 0.679688 -2.390625 0.890625 -2.390625 C 1.097656 -2.390625 1.289062 -2.34375 1.46875 -2.25 C 1.46875 -2.132812 1.453125 -1.941406 1.421875 -1.671875 L 1.375 -1.6875 C 1.375 -1.894531 1.320312 -2.050781 1.21875 -2.15625 C 1.113281 -2.257812 0.992188 -2.3125 0.859375 -2.3125 C 0.722656 -2.3125 0.613281 -2.269531 0.53125 -2.1875 C 0.457031 -2.113281 0.421875 -2.023438 0.421875 -1.921875 C 0.421875 -1.816406 0.445312 -1.726562 0.5 -1.65625 C 0.5625 -1.582031 0.632812 -1.519531 0.71875 -1.46875 C 0.800781 -1.414062 0.894531 -1.359375 1 -1.296875 C 1.101562 -1.242188 1.195312 -1.1875 1.28125 -1.125 C 1.375 -1.070312 1.445312 -1 1.5 -0.90625 C 1.5625 -0.8125 1.59375 -0.707031 1.59375 -0.59375 C 1.59375 -0.382812 1.515625 -0.226562 1.359375 -0.125 C 1.210938 -0.0195312 1.035156 0.03125 0.828125 0.03125 C 0.710938 0.03125 0.59375 0.015625 0.46875 -0.015625 C 0.351562 -0.0546875 0.257812 -0.109375 0.1875 -0.171875 C 0.1875 -0.316406 0.195312 -0.5 0.21875 -0.71875 Z M 0.28125 -0.71875 "/></g></g><g style="fill:#ffffff;fill-opacity:1;"><g transform="translate(43.379435, 22.640929)"><path style="stroke:none" d="M 2.296875 -0.265625 C 2.035156 -0.0664062 1.722656 0.03125 1.359375 0.03125 C 1.003906 0.03125 0.71875 -0.0820312 0.5 -0.3125 C 0.28125 -0.539062 0.171875 -0.828125 0.171875 -1.171875 C 0.171875 -1.523438 0.273438 -1.816406 0.484375 -2.046875 C 0.703125 -2.273438 0.988281 -2.390625 1.34375 -2.390625 C 1.507812 -2.390625 1.675781 -2.367188 1.84375 -2.328125 C 2.007812 -2.285156 2.132812 -2.238281 2.21875 -2.1875 L 2.21875 -1.75 L 2.1875 -1.765625 C 2.132812 -1.960938 2.035156 -2.101562 1.890625 -2.1875 C 1.753906 -2.269531 1.570312 -2.3125 1.34375 -2.3125 C 1.0625 -2.3125 0.84375 -2.207031 0.6875 -2 C 0.539062 -1.789062 0.46875 -1.519531 0.46875 -1.1875 C 0.46875 -0.851562 0.546875 -0.582031 0.703125 -0.375 C 0.859375 -0.164062 1.082031 -0.0625 1.375 -0.0625 C 1.582031 -0.0625 1.753906 -0.0859375 1.890625 -0.140625 C 2.023438 -0.191406 2.160156 -0.265625 2.296875 -0.359375 Z M 2.296875 -0.265625 "/></g></g><g style="fill:#ffffff;fill-opacity:1;"><g transform="translate(45.780732, 22.640929)"><path style="stroke:none" d="M 0.75 -1.59375 L 0.75 -0.765625 C 0.75 -0.523438 0.753906 -0.359375 0.765625 -0.265625 C 0.773438 -0.179688 0.796875 -0.128906 0.828125 -0.109375 C 0.878906 -0.0664062 0.960938 -0.046875 1.078125 -0.046875 L 1.078125 0 L 0.171875 0 L 0.171875 -0.046875 C 0.234375 -0.046875 0.28125 -0.046875 0.3125 -0.046875 C 0.34375 -0.046875 0.367188 -0.0546875 0.390625 -0.078125 C 0.421875 -0.0976562 0.441406 -0.117188 0.453125 -0.140625 C 0.460938 -0.171875 0.472656 -0.21875 0.484375 -0.28125 C 0.492188 -0.363281 0.5 -0.523438 0.5 -0.765625 L 0.5 -1.59375 C 0.5 -1.832031 0.492188 -2 0.484375 -2.09375 C 0.472656 -2.1875 0.453125 -2.242188 0.421875 -2.265625 C 0.367188 -2.304688 0.285156 -2.328125 0.171875 -2.328125 L 0.171875 -2.359375 L 1.078125 -2.359375 L 1.078125 -2.328125 C 0.960938 -2.328125 0.878906 -2.304688 0.828125 -2.265625 C 0.773438 -2.210938 0.75 -1.988281 0.75 -1.59375 Z M 0.75 -1.59375 "/></g></g><g style="fill:#ffffff;fill-opacity:1;"><g transform="translate(47.028597, 22.640929)"><path style="stroke:none" d="M 1.875 0 L 0.171875 0 L 0.171875 -0.046875 C 0.285156 -0.046875 0.367188 -0.0664062 0.421875 -0.109375 C 0.472656 -0.148438 0.5 -0.367188 0.5 -0.765625 L 0.5 -1.59375 C 0.5 -1.832031 0.492188 -2 0.484375 -2.09375 C 0.472656 -2.1875 0.453125 -2.242188 0.421875 -2.265625 C 0.367188 -2.304688 0.285156 -2.328125 0.171875 -2.328125 L 0.171875 -2.359375 L 1.75 -2.359375 L 1.75 -1.875 L 1.703125 -1.890625 C 1.703125 -2.035156 1.625 -2.132812 1.46875 -2.1875 C 1.3125 -2.25 1.066406 -2.28125 0.734375 -2.28125 L 0.734375 -1.21875 C 0.953125 -1.21875 1.109375 -1.226562 1.203125 -1.25 C 1.296875 -1.28125 1.351562 -1.316406 1.375 -1.359375 C 1.40625 -1.398438 1.421875 -1.476562 1.421875 -1.59375 L 1.46875 -1.59375 L 1.46875 -0.78125 L 1.421875 -0.78125 C 1.421875 -0.894531 1.40625 -0.972656 1.375 -1.015625 C 1.351562 -1.054688 1.296875 -1.085938 1.203125 -1.109375 C 1.109375 -1.128906 0.953125 -1.140625 0.734375 -1.140625 L 0.734375 -0.71875 C 0.734375 -0.476562 0.742188 -0.316406 0.765625 -0.234375 C 0.785156 -0.160156 0.820312 -0.109375 0.875 -0.078125 C 1.507812 -0.078125 1.828125 -0.210938 1.828125 -0.484375 L 1.875 -0.484375 Z M 1.875 0 "/></g></g><g style="fill:#ffffff;fill-opacity:1;"><g transform="translate(49.106124, 22.640929)"><path style="stroke:none" d="M 2.28125 -1.609375 L 2.28125 0.015625 L 2.1875 0.015625 L 0.59375 -1.984375 L 0.59375 -0.765625 C 0.59375 -0.546875 0.601562 -0.382812 0.625 -0.28125 C 0.644531 -0.1875 0.675781 -0.125 0.71875 -0.09375 C 0.769531 -0.0625 0.847656 -0.046875 0.953125 -0.046875 L 0.96875 0 L 0.125 0 L 0.140625 -0.046875 C 0.242188 -0.046875 0.316406 -0.0625 0.359375 -0.09375 C 0.410156 -0.125 0.445312 -0.1875 0.46875 -0.28125 C 0.488281 -0.382812 0.5 -0.546875 0.5 -0.765625 L 0.5 -1.609375 C 0.5 -1.828125 0.488281 -1.984375 0.46875 -2.078125 C 0.445312 -2.179688 0.410156 -2.25 0.359375 -2.28125 C 0.316406 -2.3125 0.242188 -2.328125 0.140625 -2.328125 L 0.125 -2.359375 L 0.59375 -2.359375 L 2.203125 -0.359375 L 2.203125 -1.609375 C 2.203125 -1.828125 2.191406 -1.984375 2.171875 -2.078125 C 2.148438 -2.179688 2.113281 -2.25 2.0625 -2.28125 C 2.019531 -2.3125 1.941406 -2.328125 1.828125 -2.328125 L 1.828125 -2.359375 L 2.65625 -2.359375 L 2.65625 -2.328125 C 2.539062 -2.328125 2.457031 -2.3125 2.40625 -2.28125 C 2.363281 -2.25 2.332031 -2.179688 2.3125 -2.078125 C 2.289062 -1.984375 2.28125 -1.828125 2.28125 -1.609375 Z M 2.28125 -1.609375 "/></g></g><g style="fill:#ffffff;fill-opacity:1;"><g transform="translate(51.895269, 22.640929)"><path style="stroke:none" d="M 0.046875 -2.359375 L 2 -2.359375 L 2 -1.875 L 1.953125 -1.890625 C 1.953125 -2.160156 1.679688 -2.296875 1.140625 -2.296875 L 1.140625 -0.765625 C 1.140625 -0.429688 1.160156 -0.226562 1.203125 -0.15625 C 1.210938 -0.125 1.234375 -0.0976562 1.265625 -0.078125 C 1.304688 -0.0546875 1.34375 -0.046875 1.375 -0.046875 C 1.414062 -0.046875 1.46875 -0.046875 1.53125 -0.046875 L 1.546875 0 L 0.5 0 L 0.515625 -0.046875 C 0.578125 -0.046875 0.628906 -0.046875 0.671875 -0.046875 C 0.710938 -0.046875 0.75 -0.0546875 0.78125 -0.078125 C 0.8125 -0.109375 0.832031 -0.132812 0.84375 -0.15625 C 0.863281 -0.175781 0.878906 -0.21875 0.890625 -0.28125 C 0.898438 -0.363281 0.90625 -0.523438 0.90625 -0.765625 L 0.90625 -2.296875 C 0.363281 -2.296875 0.09375 -2.160156 0.09375 -1.890625 L 0.046875 -1.875 Z M 0.046875 -2.359375 "/></g></g><g style="fill:#ffffff;fill-opacity:1;"><g transform="translate(53.939067, 22.640929)"><path style="stroke:none" d="M 0.75 -1.59375 L 0.75 -0.765625 C 0.75 -0.523438 0.753906 -0.359375 0.765625 -0.265625 C 0.773438 -0.179688 0.796875 -0.128906 0.828125 -0.109375 C 0.878906 -0.0664062 0.960938 -0.046875 1.078125 -0.046875 L 1.078125 0 L 0.171875 0 L 0.171875 -0.046875 C 0.234375 -0.046875 0.28125 -0.046875 0.3125 -0.046875 C 0.34375 -0.046875 0.367188 -0.0546875 0.390625 -0.078125 C 0.421875 -0.0976562 0.441406 -0.117188 0.453125 -0.140625 C 0.460938 -0.171875 0.472656 -0.21875 0.484375 -0.28125 C 0.492188 -0.363281 0.5 -0.523438 0.5 -0.765625 L 0.5 -1.59375 C 0.5 -1.832031 0.492188 -2 0.484375 -2.09375 C 0.472656 -2.1875 0.453125 -2.242188 0.421875 -2.265625 C 0.367188 -2.304688 0.285156 -2.328125 0.171875 -2.328125 L 0.171875 -2.359375 L 1.078125 -2.359375 L 1.078125 -2.328125 C 0.960938 -2.328125 0.878906 -2.304688 0.828125 -2.265625 C 0.773438 -2.210938 0.75 -1.988281 0.75 -1.59375 Z M 0.75 -1.59375 "/></g></g><g style="fill:#ffffff;fill-opacity:1;"><g transform="translate(55.186932, 22.640929)"><path style="stroke:none" d="M 1.5 -0.046875 C 1.582031 -0.046875 1.640625 -0.0507812 1.671875 -0.0625 C 1.710938 -0.0703125 1.734375 -0.101562 1.734375 -0.15625 C 1.734375 -0.21875 1.671875 -0.410156 1.546875 -0.734375 L 0.515625 -0.734375 C 0.421875 -0.453125 0.375 -0.273438 0.375 -0.203125 C 0.375 -0.128906 0.390625 -0.0820312 0.421875 -0.0625 C 0.460938 -0.0507812 0.53125 -0.046875 0.625 -0.046875 L 0.640625 0 L -0.125 0 L -0.109375 -0.046875 C -0.046875 -0.046875 0 -0.0507812 0.03125 -0.0625 C 0.0703125 -0.0703125 0.113281 -0.0976562 0.15625 -0.140625 C 0.195312 -0.191406 0.238281 -0.265625 0.28125 -0.359375 C 0.320312 -0.453125 0.375 -0.582031 0.4375 -0.75 L 0.734375 -1.609375 C 0.835938 -1.921875 0.890625 -2.109375 0.890625 -2.171875 C 0.890625 -2.234375 0.875 -2.273438 0.84375 -2.296875 C 0.8125 -2.316406 0.75 -2.328125 0.65625 -2.328125 L 0.65625 -2.359375 L 1.21875 -2.359375 L 1.8125 -0.75 C 1.90625 -0.476562 1.96875 -0.304688 2 -0.234375 C 2.039062 -0.160156 2.078125 -0.113281 2.109375 -0.09375 C 2.171875 -0.0625 2.242188 -0.046875 2.328125 -0.046875 L 2.328125 0 L 1.484375 0 Z M 1.015625 -2.1875 L 0.546875 -0.8125 L 1.515625 -0.8125 Z M 1.015625 -2.1875 "/></g></g><g style="fill:#ffffff;fill-opacity:1;"><g transform="translate(57.39599, 22.640929)"><path style="stroke:none" d=""/></g></g><g style="fill:#ffffff;fill-opacity:1;"><g transform="translate(58.23914, 22.640929)"><path style="stroke:none" d="M 1.875 0 L 0.171875 0 L 0.171875 -0.046875 C 0.285156 -0.046875 0.367188 -0.0664062 0.421875 -0.109375 C 0.472656 -0.148438 0.5 -0.367188 0.5 -0.765625 L 0.5 -1.59375 C 0.5 -1.832031 0.492188 -2 0.484375 -2.09375 C 0.472656 -2.1875 0.453125 -2.242188 0.421875 -2.265625 C 0.367188 -2.304688 0.285156 -2.328125 0.171875 -2.328125 L 0.171875 -2.359375 L 1.75 -2.359375 L 1.75 -1.875 L 1.703125 -1.890625 C 1.703125 -2.035156 1.625 -2.132812 1.46875 -2.1875 C 1.3125 -2.25 1.066406 -2.28125 0.734375 -2.28125 L 0.734375 -1.21875 C 0.953125 -1.21875 1.109375 -1.226562 1.203125 -1.25 C 1.296875 -1.28125 1.351562 -1.316406 1.375 -1.359375 C 1.40625 -1.398438 1.421875 -1.476562 1.421875 -1.59375 L 1.46875 -1.59375 L 1.46875 -0.78125 L 1.421875 -0.78125 C 1.421875 -0.894531 1.40625 -0.972656 1.375 -1.015625 C 1.351562 -1.054688 1.296875 -1.085938 1.203125 -1.109375 C 1.109375 -1.128906 0.953125 -1.140625 0.734375 -1.140625 L 0.734375 -0.71875 C 0.734375 -0.476562 0.742188 -0.316406 0.765625 -0.234375 C 0.785156 -0.160156 0.820312 -0.109375 0.875 -0.078125 C 1.507812 -0.078125 1.828125 -0.210938 1.828125 -0.484375 L 1.875 -0.484375 Z M 1.875 0 "/></g></g><g style="fill:#ffffff;fill-opacity:1;"><g transform="translate(60.316667, 22.640929)"><path style="stroke:none" d="M 0.046875 -2.359375 L 2 -2.359375 L 2 -1.875 L 1.953125 -1.890625 C 1.953125 -2.160156 1.679688 -2.296875 1.140625 -2.296875 L 1.140625 -0.765625 C 1.140625 -0.429688 1.160156 -0.226562 1.203125 -0.15625 C 1.210938 -0.125 1.234375 -0.0976562 1.265625 -0.078125 C 1.304688 -0.0546875 1.34375 -0.046875 1.375 -0.046875 C 1.414062 -0.046875 1.46875 -0.046875 1.53125 -0.046875 L 1.546875 0 L 0.5 0 L 0.515625 -0.046875 C 0.578125 -0.046875 0.628906 -0.046875 0.671875 -0.046875 C 0.710938 -0.046875 0.75 -0.0546875 0.78125 -0.078125 C 0.8125 -0.109375 0.832031 -0.132812 0.84375 -0.15625 C 0.863281 -0.175781 0.878906 -0.21875 0.890625 -0.28125 C 0.898438 -0.363281 0.90625 -0.523438 0.90625 -0.765625 L 0.90625 -2.296875 C 0.363281 -2.296875 0.09375 -2.160156 0.09375 -1.890625 L 0.046875 -1.875 Z M 0.046875 -2.359375 "/></g></g><g style="fill:#ffffff;fill-opacity:1;"><g transform="translate(62.360465, 22.640929)"><path style="stroke:none" d=""/></g></g><g style="fill:#ffffff;fill-opacity:1;"><g transform="translate(63.203615, 22.640929)"><path style="stroke:none" d="M 0.75 -1.59375 L 0.75 -0.765625 C 0.75 -0.523438 0.753906 -0.359375 0.765625 -0.265625 C 0.773438 -0.179688 0.796875 -0.128906 0.828125 -0.109375 C 0.878906 -0.0664062 0.960938 -0.046875 1.078125 -0.046875 L 1.078125 0 L 0.171875 0 L 0.171875 -0.046875 C 0.234375 -0.046875 0.28125 -0.046875 0.3125 -0.046875 C 0.34375 -0.046875 0.367188 -0.0546875 0.390625 -0.078125 C 0.421875 -0.0976562 0.441406 -0.117188 0.453125 -0.140625 C 0.460938 -0.171875 0.472656 -0.21875 0.484375 -0.28125 C 0.492188 -0.363281 0.5 -0.523438 0.5 -0.765625 L 0.5 -1.59375 C 0.5 -1.832031 0.492188 -2 0.484375 -2.09375 C 0.472656 -2.1875 0.453125 -2.242188 0.421875 -2.265625 C 0.367188 -2.304688 0.285156 -2.328125 0.171875 -2.328125 L 0.171875 -2.359375 L 1.078125 -2.359375 L 1.078125 -2.328125 C 0.960938 -2.328125 0.878906 -2.304688 0.828125 -2.265625 C 0.773438 -2.210938 0.75 -1.988281 0.75 -1.59375 Z M 0.75 -1.59375 "/></g></g><g style="fill:#ffffff;fill-opacity:1;"><g transform="translate(64.451479, 22.640929)"><path style="stroke:none" d="M 2.28125 -1.609375 L 2.28125 0.015625 L 2.1875 0.015625 L 0.59375 -1.984375 L 0.59375 -0.765625 C 0.59375 -0.546875 0.601562 -0.382812 0.625 -0.28125 C 0.644531 -0.1875 0.675781 -0.125 0.71875 -0.09375 C 0.769531 -0.0625 0.847656 -0.046875 0.953125 -0.046875 L 0.96875 0 L 0.125 0 L 0.140625 -0.046875 C 0.242188 -0.046875 0.316406 -0.0625 0.359375 -0.09375 C 0.410156 -0.125 0.445312 -0.1875 0.46875 -0.28125 C 0.488281 -0.382812 0.5 -0.546875 0.5 -0.765625 L 0.5 -1.609375 C 0.5 -1.828125 0.488281 -1.984375 0.46875 -2.078125 C 0.445312 -2.179688 0.410156 -2.25 0.359375 -2.28125 C 0.316406 -2.3125 0.242188 -2.328125 0.140625 -2.328125 L 0.125 -2.359375 L 0.59375 -2.359375 L 2.203125 -0.359375 L 2.203125 -1.609375 C 2.203125 -1.828125 2.191406 -1.984375 2.171875 -2.078125 C 2.148438 -2.179688 2.113281 -2.25 2.0625 -2.28125 C 2.019531 -2.3125 1.941406 -2.328125 1.828125 -2.328125 L 1.828125 -2.359375 L 2.65625 -2.359375 L 2.65625 -2.328125 C 2.539062 -2.328125 2.457031 -2.3125 2.40625 -2.28125 C 2.363281 -2.25 2.332031 -2.179688 2.3125 -2.078125 C 2.289062 -1.984375 2.28125 -1.828125 2.28125 -1.609375 Z M 2.28125 -1.609375 "/></g></g><g style="fill:#ffffff;fill-opacity:1;"><g transform="translate(67.240625, 22.640929)"><path style="stroke:none" d="M 2.265625 -0.625 L 2.265625 -0.21875 C 2.148438 -0.144531 2.007812 -0.0820312 1.84375 -0.03125 C 1.6875 0.0078125 1.523438 0.03125 1.359375 0.03125 C 1.003906 0.03125 0.71875 -0.0820312 0.5 -0.3125 C 0.28125 -0.539062 0.171875 -0.828125 0.171875 -1.171875 C 0.171875 -1.523438 0.273438 -1.816406 0.484375 -2.046875 C 0.703125 -2.273438 0.988281 -2.390625 1.34375 -2.390625 C 1.5 -2.390625 1.65625 -2.367188 1.8125 -2.328125 C 1.976562 -2.285156 2.097656 -2.238281 2.171875 -2.1875 L 2.171875 -1.75 L 2.140625 -1.765625 C 2.117188 -1.941406 2.03125 -2.078125 1.875 -2.171875 C 1.726562 -2.265625 1.550781 -2.3125 1.34375 -2.3125 C 1.0625 -2.3125 0.84375 -2.207031 0.6875 -2 C 0.539062 -1.789062 0.46875 -1.515625 0.46875 -1.171875 C 0.46875 -0.835938 0.546875 -0.566406 0.703125 -0.359375 C 0.859375 -0.148438 1.085938 -0.046875 1.390625 -0.046875 C 1.691406 -0.046875 1.898438 -0.140625 2.015625 -0.328125 L 2.015625 -0.59375 C 2.015625 -0.84375 2 -0.992188 1.96875 -1.046875 C 1.945312 -1.109375 1.867188 -1.140625 1.734375 -1.140625 L 1.734375 -1.171875 L 2.5625 -1.171875 L 2.546875 -1.140625 C 2.421875 -1.140625 2.34375 -1.109375 2.3125 -1.046875 C 2.28125 -0.984375 2.265625 -0.84375 2.265625 -0.625 Z M 2.265625 -0.625 "/></g></g><g style="fill:#ffffff;fill-opacity:1;"><g transform="translate(69.921847, 22.640929)"><path style="stroke:none" d="M 1.875 0 L 0.171875 0 L 0.171875 -0.046875 C 0.285156 -0.046875 0.367188 -0.0664062 0.421875 -0.109375 C 0.472656 -0.148438 0.5 -0.367188 0.5 -0.765625 L 0.5 -1.59375 C 0.5 -1.832031 0.492188 -2 0.484375 -2.09375 C 0.472656 -2.1875 0.453125 -2.242188 0.421875 -2.265625 C 0.367188 -2.304688 0.285156 -2.328125 0.171875 -2.328125 L 0.171875 -2.359375 L 1.75 -2.359375 L 1.75 -1.875 L 1.703125 -1.890625 C 1.703125 -2.035156 1.625 -2.132812 1.46875 -2.1875 C 1.3125 -2.25 1.066406 -2.28125 0.734375 -2.28125 L 0.734375 -1.21875 C 0.953125 -1.21875 1.109375 -1.226562 1.203125 -1.25 C 1.296875 -1.28125 1.351562 -1.316406 1.375 -1.359375 C 1.40625 -1.398438 1.421875 -1.476562 1.421875 -1.59375 L 1.46875 -1.59375 L 1.46875 -0.78125 L 1.421875 -0.78125 C 1.421875 -0.894531 1.40625 -0.972656 1.375 -1.015625 C 1.351562 -1.054688 1.296875 -1.085938 1.203125 -1.109375 C 1.109375 -1.128906 0.953125 -1.140625 0.734375 -1.140625 L 0.734375 -0.71875 C 0.734375 -0.476562 0.742188 -0.316406 0.765625 -0.234375 C 0.785156 -0.160156 0.820312 -0.109375 0.875 -0.078125 C 1.507812 -0.078125 1.828125 -0.210938 1.828125 -0.484375 L 1.875 -0.484375 Z M 1.875 0 "/></g></g><g style="fill:#ffffff;fill-opacity:1;"><g transform="translate(71.999374, 22.640929)"><path style="stroke:none" d="M 2.28125 -1.609375 L 2.28125 0.015625 L 2.1875 0.015625 L 0.59375 -1.984375 L 0.59375 -0.765625 C 0.59375 -0.546875 0.601562 -0.382812 0.625 -0.28125 C 0.644531 -0.1875 0.675781 -0.125 0.71875 -0.09375 C 0.769531 -0.0625 0.847656 -0.046875 0.953125 -0.046875 L 0.96875 0 L 0.125 0 L 0.140625 -0.046875 C 0.242188 -0.046875 0.316406 -0.0625 0.359375 -0.09375 C 0.410156 -0.125 0.445312 -0.1875 0.46875 -0.28125 C 0.488281 -0.382812 0.5 -0.546875 0.5 -0.765625 L 0.5 -1.609375 C 0.5 -1.828125 0.488281 -1.984375 0.46875 -2.078125 C 0.445312 -2.179688 0.410156 -2.25 0.359375 -2.28125 C 0.316406 -2.3125 0.242188 -2.328125 0.140625 -2.328125 L 0.125 -2.359375 L 0.59375 -2.359375 L 2.203125 -0.359375 L 2.203125 -1.609375 C 2.203125 -1.828125 2.191406 -1.984375 2.171875 -2.078125 C 2.148438 -2.179688 2.113281 -2.25 2.0625 -2.28125 C 2.019531 -2.3125 1.941406 -2.328125 1.828125 -2.328125 L 1.828125 -2.359375 L 2.65625 -2.359375 L 2.65625 -2.328125 C 2.539062 -2.328125 2.457031 -2.3125 2.40625 -2.28125 C 2.363281 -2.25 2.332031 -2.179688 2.3125 -2.078125 C 2.289062 -1.984375 2.28125 -1.828125 2.28125 -1.609375 Z M 2.28125 -1.609375 "/></g></g><g style="fill:#ffffff;fill-opacity:1;"><g transform="translate(74.788519, 22.640929)"><path style="stroke:none" d="M 0.75 -1.59375 L 0.75 -0.765625 C 0.75 -0.523438 0.753906 -0.359375 0.765625 -0.265625 C 0.773438 -0.179688 0.796875 -0.128906 0.828125 -0.109375 C 0.878906 -0.0664062 0.960938 -0.046875 1.078125 -0.046875 L 1.078125 0 L 0.171875 0 L 0.171875 -0.046875 C 0.234375 -0.046875 0.28125 -0.046875 0.3125 -0.046875 C 0.34375 -0.046875 0.367188 -0.0546875 0.390625 -0.078125 C 0.421875 -0.0976562 0.441406 -0.117188 0.453125 -0.140625 C 0.460938 -0.171875 0.472656 -0.21875 0.484375 -0.28125 C 0.492188 -0.363281 0.5 -0.523438 0.5 -0.765625 L 0.5 -1.59375 C 0.5 -1.832031 0.492188 -2 0.484375 -2.09375 C 0.472656 -2.1875 0.453125 -2.242188 0.421875 -2.265625 C 0.367188 -2.304688 0.285156 -2.328125 0.171875 -2.328125 L 0.171875 -2.359375 L 1.078125 -2.359375 L 1.078125 -2.328125 C 0.960938 -2.328125 0.878906 -2.304688 0.828125 -2.265625 C 0.773438 -2.210938 0.75 -1.988281 0.75 -1.59375 Z M 0.75 -1.59375 "/></g></g><g style="fill:#ffffff;fill-opacity:1;"><g transform="translate(76.036384, 22.640929)"><path style="stroke:none" d="M 1.296875 -2.390625 C 1.660156 -2.390625 1.945312 -2.28125 2.15625 -2.0625 C 2.375 -1.84375 2.484375 -1.554688 2.484375 -1.203125 C 2.484375 -0.847656 2.378906 -0.550781 2.171875 -0.3125 C 1.960938 -0.0820312 1.675781 0.03125 1.3125 0.03125 C 0.957031 0.03125 0.671875 -0.0820312 0.453125 -0.3125 C 0.234375 -0.550781 0.125 -0.847656 0.125 -1.203125 C 0.125 -1.554688 0.226562 -1.84375 0.4375 -2.0625 C 0.644531 -2.28125 0.929688 -2.390625 1.296875 -2.390625 Z M 1.3125 -0.046875 C 1.601562 -0.046875 1.820312 -0.148438 1.96875 -0.359375 C 2.113281 -0.566406 2.1875 -0.835938 2.1875 -1.171875 C 2.1875 -1.515625 2.109375 -1.789062 1.953125 -2 C 1.796875 -2.207031 1.570312 -2.3125 1.28125 -2.3125 C 1 -2.3125 0.78125 -2.207031 0.625 -2 C 0.476562 -1.789062 0.40625 -1.515625 0.40625 -1.171875 C 0.40625 -0.835938 0.484375 -0.566406 0.640625 -0.359375 C 0.804688 -0.148438 1.03125 -0.046875 1.3125 -0.046875 Z M 1.3125 -0.046875 "/></g></g><g style="fill:#ffffff;fill-opacity:1;"><g transform="translate(78.640036, 22.640929)"><path style="stroke:none" d=""/></g></g><g style="fill:#ffffff;fill-opacity:1;"><g transform="translate(79.483186, 22.640929)"><path style="stroke:none" d="M 0.75 -1.59375 L 0.75 -0.765625 C 0.75 -0.523438 0.753906 -0.359375 0.765625 -0.265625 C 0.773438 -0.179688 0.796875 -0.128906 0.828125 -0.109375 C 0.878906 -0.0664062 0.960938 -0.046875 1.078125 -0.046875 L 1.078125 0 L 0.171875 0 L 0.171875 -0.046875 C 0.234375 -0.046875 0.28125 -0.046875 0.3125 -0.046875 C 0.34375 -0.046875 0.367188 -0.0546875 0.390625 -0.078125 C 0.421875 -0.0976562 0.441406 -0.117188 0.453125 -0.140625 C 0.460938 -0.171875 0.472656 -0.21875 0.484375 -0.28125 C 0.492188 -0.363281 0.5 -0.523438 0.5 -0.765625 L 0.5 -1.59375 C 0.5 -1.832031 0.492188 -2 0.484375 -2.09375 C 0.472656 -2.1875 0.453125 -2.242188 0.421875 -2.265625 C 0.367188 -2.304688 0.285156 -2.328125 0.171875 -2.328125 L 0.171875 -2.359375 L 1.078125 -2.359375 L 1.078125 -2.328125 C 0.960938 -2.328125 0.878906 -2.304688 0.828125 -2.265625 C 0.773438 -2.210938 0.75 -1.988281 0.75 -1.59375 Z M 0.75 -1.59375 "/></g></g><g style="fill:#ffffff;fill-opacity:1;"><g transform="translate(80.73105, 22.640929)"><path style="stroke:none" d="M 2.234375 -1.59375 L 2.234375 -0.9375 C 2.234375 -0.78125 2.210938 -0.644531 2.171875 -0.53125 C 2.140625 -0.414062 2.09375 -0.320312 2.03125 -0.25 C 1.976562 -0.1875 1.910156 -0.128906 1.828125 -0.078125 C 1.691406 -0.00390625 1.535156 0.03125 1.359375 0.03125 C 0.742188 0.03125 0.4375 -0.28125 0.4375 -0.90625 L 0.4375 -1.59375 C 0.4375 -1.832031 0.425781 -1.992188 0.40625 -2.078125 C 0.394531 -2.171875 0.378906 -2.234375 0.359375 -2.265625 C 0.304688 -2.304688 0.222656 -2.328125 0.109375 -2.328125 L 0.09375 -2.359375 L 1.015625 -2.359375 L 1 -2.328125 C 0.945312 -2.328125 0.90625 -2.320312 0.875 -2.3125 C 0.84375 -2.3125 0.8125 -2.300781 0.78125 -2.28125 C 0.757812 -2.257812 0.738281 -2.234375 0.71875 -2.203125 C 0.707031 -2.179688 0.695312 -2.140625 0.6875 -2.078125 C 0.675781 -1.992188 0.671875 -1.832031 0.671875 -1.59375 L 0.671875 -0.890625 C 0.671875 -0.597656 0.734375 -0.382812 0.859375 -0.25 C 0.992188 -0.125 1.171875 -0.0625 1.390625 -0.0625 C 1.609375 -0.0625 1.789062 -0.128906 1.9375 -0.265625 C 2.082031 -0.410156 2.15625 -0.628906 2.15625 -0.921875 L 2.15625 -1.59375 C 2.15625 -1.820312 2.144531 -1.984375 2.125 -2.078125 C 2.101562 -2.179688 2.066406 -2.25 2.015625 -2.28125 C 1.972656 -2.3125 1.894531 -2.328125 1.78125 -2.328125 L 1.78125 -2.359375 L 2.609375 -2.359375 L 2.609375 -2.328125 C 2.492188 -2.328125 2.410156 -2.3125 2.359375 -2.28125 C 2.316406 -2.25 2.285156 -2.179688 2.265625 -2.078125 C 2.242188 -1.984375 2.234375 -1.820312 2.234375 -1.59375 Z M 2.234375 -1.59375 "/></g></g><g style="fill:#ffffff;fill-opacity:1;"><g transform="translate(83.402156, 22.640929)"><path style="stroke:none" d="M 0.6875 -2.21875 C 0.6875 -2.175781 0.6875 -2.144531 0.6875 -2.125 C 0.695312 -2.101562 0.703125 -2.082031 0.703125 -2.0625 C 0.710938 -2.050781 0.71875 -2.035156 0.71875 -2.015625 C 0.726562 -1.992188 0.734375 -1.972656 0.734375 -1.953125 C 0.742188 -1.941406 0.753906 -1.921875 0.765625 -1.890625 C 0.773438 -1.859375 0.785156 -1.832031 0.796875 -1.8125 C 0.804688 -1.789062 0.816406 -1.757812 0.828125 -1.71875 C 0.847656 -1.675781 0.863281 -1.640625 0.875 -1.609375 L 1.390625 -0.1875 L 1.890625 -1.609375 C 1.992188 -1.898438 2.046875 -2.082031 2.046875 -2.15625 C 2.046875 -2.226562 2.023438 -2.273438 1.984375 -2.296875 C 1.941406 -2.316406 1.875 -2.328125 1.78125 -2.328125 L 1.78125 -2.359375 L 2.609375 -2.359375 L 2.59375 -2.328125 C 2.507812 -2.328125 2.445312 -2.316406 2.40625 -2.296875 C 2.363281 -2.285156 2.316406 -2.253906 2.265625 -2.203125 C 2.210938 -2.160156 2.164062 -2.09375 2.125 -2 C 2.09375 -1.914062 2.046875 -1.785156 1.984375 -1.609375 L 1.421875 0.015625 L 1.203125 0.015625 L 0.609375 -1.609375 C 0.484375 -1.953125 0.394531 -2.15625 0.34375 -2.21875 C 0.320312 -2.238281 0.289062 -2.257812 0.25 -2.28125 C 0.21875 -2.300781 0.1875 -2.3125 0.15625 -2.3125 C 0.125 -2.320312 0.0820312 -2.328125 0.03125 -2.328125 L 0.015625 -2.359375 L 0.921875 -2.359375 L 0.921875 -2.328125 C 0.835938 -2.328125 0.773438 -2.316406 0.734375 -2.296875 C 0.703125 -2.285156 0.6875 -2.257812 0.6875 -2.21875 Z M 0.6875 -2.21875 "/></g></g><g style="fill:#ffffff;fill-opacity:1;"><g transform="translate(86.02267, 22.640929)"><path style="stroke:none" d="M 1.875 0 L 0.171875 0 L 0.171875 -0.046875 C 0.285156 -0.046875 0.367188 -0.0664062 0.421875 -0.109375 C 0.472656 -0.148438 0.5 -0.367188 0.5 -0.765625 L 0.5 -1.59375 C 0.5 -1.832031 0.492188 -2 0.484375 -2.09375 C 0.472656 -2.1875 0.453125 -2.242188 0.421875 -2.265625 C 0.367188 -2.304688 0.285156 -2.328125 0.171875 -2.328125 L 0.171875 -2.359375 L 1.75 -2.359375 L 1.75 -1.875 L 1.703125 -1.890625 C 1.703125 -2.035156 1.625 -2.132812 1.46875 -2.1875 C 1.3125 -2.25 1.066406 -2.28125 0.734375 -2.28125 L 0.734375 -1.21875 C 0.953125 -1.21875 1.109375 -1.226562 1.203125 -1.25 C 1.296875 -1.28125 1.351562 -1.316406 1.375 -1.359375 C 1.40625 -1.398438 1.421875 -1.476562 1.421875 -1.59375 L 1.46875 -1.59375 L 1.46875 -0.78125 L 1.421875 -0.78125 C 1.421875 -0.894531 1.40625 -0.972656 1.375 -1.015625 C 1.351562 -1.054688 1.296875 -1.085938 1.203125 -1.109375 C 1.109375 -1.128906 0.953125 -1.140625 0.734375 -1.140625 L 0.734375 -0.71875 C 0.734375 -0.476562 0.742188 -0.316406 0.765625 -0.234375 C 0.785156 -0.160156 0.820312 -0.109375 0.875 -0.078125 C 1.507812 -0.078125 1.828125 -0.210938 1.828125 -0.484375 L 1.875 -0.484375 Z M 1.875 0 "/></g></g><g style="fill:#ffffff;fill-opacity:1;"><g transform="translate(88.100197, 22.640929)"><path style="stroke:none" d="M 2.28125 -1.609375 L 2.28125 0.015625 L 2.1875 0.015625 L 0.59375 -1.984375 L 0.59375 -0.765625 C 0.59375 -0.546875 0.601562 -0.382812 0.625 -0.28125 C 0.644531 -0.1875 0.675781 -0.125 0.71875 -0.09375 C 0.769531 -0.0625 0.847656 -0.046875 0.953125 -0.046875 L 0.96875 0 L 0.125 0 L 0.140625 -0.046875 C 0.242188 -0.046875 0.316406 -0.0625 0.359375 -0.09375 C 0.410156 -0.125 0.445312 -0.1875 0.46875 -0.28125 C 0.488281 -0.382812 0.5 -0.546875 0.5 -0.765625 L 0.5 -1.609375 C 0.5 -1.828125 0.488281 -1.984375 0.46875 -2.078125 C 0.445312 -2.179688 0.410156 -2.25 0.359375 -2.28125 C 0.316406 -2.3125 0.242188 -2.328125 0.140625 -2.328125 L 0.125 -2.359375 L 0.59375 -2.359375 L 2.203125 -0.359375 L 2.203125 -1.609375 C 2.203125 -1.828125 2.191406 -1.984375 2.171875 -2.078125 C 2.148438 -2.179688 2.113281 -2.25 2.0625 -2.28125 C 2.019531 -2.3125 1.941406 -2.328125 1.828125 -2.328125 L 1.828125 -2.359375 L 2.65625 -2.359375 L 2.65625 -2.328125 C 2.539062 -2.328125 2.457031 -2.3125 2.40625 -2.28125 C 2.363281 -2.25 2.332031 -2.179688 2.3125 -2.078125 C 2.289062 -1.984375 2.28125 -1.828125 2.28125 -1.609375 Z M 2.28125 -1.609375 "/></g></g><g style="fill:#ffffff;fill-opacity:1;"><g transform="translate(90.889343, 22.640929)"><path style="stroke:none" d="M 0.046875 -2.359375 L 2 -2.359375 L 2 -1.875 L 1.953125 -1.890625 C 1.953125 -2.160156 1.679688 -2.296875 1.140625 -2.296875 L 1.140625 -0.765625 C 1.140625 -0.429688 1.160156 -0.226562 1.203125 -0.15625 C 1.210938 -0.125 1.234375 -0.0976562 1.265625 -0.078125 C 1.304688 -0.0546875 1.34375 -0.046875 1.375 -0.046875 C 1.414062 -0.046875 1.46875 -0.046875 1.53125 -0.046875 L 1.546875 0 L 0.5 0 L 0.515625 -0.046875 C 0.578125 -0.046875 0.628906 -0.046875 0.671875 -0.046875 C 0.710938 -0.046875 0.75 -0.0546875 0.78125 -0.078125 C 0.8125 -0.109375 0.832031 -0.132812 0.84375 -0.15625 C 0.863281 -0.175781 0.878906 -0.21875 0.890625 -0.28125 C 0.898438 -0.363281 0.90625 -0.523438 0.90625 -0.765625 L 0.90625 -2.296875 C 0.363281 -2.296875 0.09375 -2.160156 0.09375 -1.890625 L 0.046875 -1.875 Z M 0.046875 -2.359375 "/></g></g><g style="fill:#ffffff;fill-opacity:1;"><g transform="translate(92.933141, 22.640929)"><path style="stroke:none" d="M 2.234375 -1.59375 L 2.234375 -0.9375 C 2.234375 -0.78125 2.210938 -0.644531 2.171875 -0.53125 C 2.140625 -0.414062 2.09375 -0.320312 2.03125 -0.25 C 1.976562 -0.1875 1.910156 -0.128906 1.828125 -0.078125 C 1.691406 -0.00390625 1.535156 0.03125 1.359375 0.03125 C 0.742188 0.03125 0.4375 -0.28125 0.4375 -0.90625 L 0.4375 -1.59375 C 0.4375 -1.832031 0.425781 -1.992188 0.40625 -2.078125 C 0.394531 -2.171875 0.378906 -2.234375 0.359375 -2.265625 C 0.304688 -2.304688 0.222656 -2.328125 0.109375 -2.328125 L 0.09375 -2.359375 L 1.015625 -2.359375 L 1 -2.328125 C 0.945312 -2.328125 0.90625 -2.320312 0.875 -2.3125 C 0.84375 -2.3125 0.8125 -2.300781 0.78125 -2.28125 C 0.757812 -2.257812 0.738281 -2.234375 0.71875 -2.203125 C 0.707031 -2.179688 0.695312 -2.140625 0.6875 -2.078125 C 0.675781 -1.992188 0.671875 -1.832031 0.671875 -1.59375 L 0.671875 -0.890625 C 0.671875 -0.597656 0.734375 -0.382812 0.859375 -0.25 C 0.992188 -0.125 1.171875 -0.0625 1.390625 -0.0625 C 1.609375 -0.0625 1.789062 -0.128906 1.9375 -0.265625 C 2.082031 -0.410156 2.15625 -0.628906 2.15625 -0.921875 L 2.15625 -1.59375 C 2.15625 -1.820312 2.144531 -1.984375 2.125 -2.078125 C 2.101562 -2.179688 2.066406 -2.25 2.015625 -2.28125 C 1.972656 -2.3125 1.894531 -2.328125 1.78125 -2.328125 L 1.78125 -2.359375 L 2.609375 -2.359375 L 2.609375 -2.328125 C 2.492188 -2.328125 2.410156 -2.3125 2.359375 -2.28125 C 2.316406 -2.25 2.285156 -2.179688 2.265625 -2.078125 C 2.242188 -1.984375 2.234375 -1.820312 2.234375 -1.59375 Z M 2.234375 -1.59375 "/></g></g><g style="fill:#ffffff;fill-opacity:1;"><g transform="translate(95.604247, 22.640929)"><path style="stroke:none" d="M 0.28125 -0.71875 C 0.28125 -0.5 0.332031 -0.332031 0.4375 -0.21875 C 0.539062 -0.101562 0.671875 -0.046875 0.828125 -0.046875 C 0.984375 -0.046875 1.109375 -0.0820312 1.203125 -0.15625 C 1.304688 -0.226562 1.359375 -0.347656 1.359375 -0.515625 C 1.359375 -0.660156 1.28125 -0.789062 1.125 -0.90625 C 1.0625 -0.957031 0.988281 -1.003906 0.90625 -1.046875 C 0.820312 -1.097656 0.738281 -1.148438 0.65625 -1.203125 C 0.570312 -1.253906 0.492188 -1.304688 0.421875 -1.359375 C 0.265625 -1.492188 0.1875 -1.644531 0.1875 -1.8125 C 0.1875 -1.988281 0.25 -2.128906 0.375 -2.234375 C 0.507812 -2.335938 0.679688 -2.390625 0.890625 -2.390625 C 1.097656 -2.390625 1.289062 -2.34375 1.46875 -2.25 C 1.46875 -2.132812 1.453125 -1.941406 1.421875 -1.671875 L 1.375 -1.6875 C 1.375 -1.894531 1.320312 -2.050781 1.21875 -2.15625 C 1.113281 -2.257812 0.992188 -2.3125 0.859375 -2.3125 C 0.722656 -2.3125 0.613281 -2.269531 0.53125 -2.1875 C 0.457031 -2.113281 0.421875 -2.023438 0.421875 -1.921875 C 0.421875 -1.816406 0.445312 -1.726562 0.5 -1.65625 C 0.5625 -1.582031 0.632812 -1.519531 0.71875 -1.46875 C 0.800781 -1.414062 0.894531 -1.359375 1 -1.296875 C 1.101562 -1.242188 1.195312 -1.1875 1.28125 -1.125 C 1.375 -1.070312 1.445312 -1 1.5 -0.90625 C 1.5625 -0.8125 1.59375 -0.707031 1.59375 -0.59375 C 1.59375 -0.382812 1.515625 -0.226562 1.359375 -0.125 C 1.210938 -0.0195312 1.035156 0.03125 0.828125 0.03125 C 0.710938 0.03125 0.59375 0.015625 0.46875 -0.015625 C 0.351562 -0.0546875 0.257812 -0.109375 0.1875 -0.171875 C 0.1875 -0.316406 0.195312 -0.5 0.21875 -0.71875 Z M 0.28125 -0.71875 "/></g></g><g style="fill:#ffffff;fill-opacity:1;"><g transform="translate(97.374866, 22.640929)"><path style="stroke:none" d=""/></g></g><g style="fill:#ffffff;fill-opacity:1;"><g transform="translate(98.218015, 22.640929)"><path style="stroke:none" d="M 1.75 -2.359375 L 1.75 -1.875 L 1.703125 -1.890625 C 1.703125 -2.035156 1.625 -2.132812 1.46875 -2.1875 C 1.3125 -2.25 1.070312 -2.28125 0.75 -2.28125 L 0.75 -1.21875 C 0.875 -1.226562 0.972656 -1.238281 1.046875 -1.25 C 1.117188 -1.257812 1.175781 -1.28125 1.21875 -1.3125 C 1.257812 -1.34375 1.28125 -1.375 1.28125 -1.40625 C 1.289062 -1.445312 1.296875 -1.507812 1.296875 -1.59375 L 1.34375 -1.59375 L 1.34375 -0.78125 L 1.296875 -0.78125 C 1.296875 -0.882812 1.285156 -0.957031 1.265625 -1 C 1.242188 -1.050781 1.191406 -1.085938 1.109375 -1.109375 C 1.035156 -1.128906 0.914062 -1.140625 0.75 -1.140625 L 0.75 -0.765625 C 0.75 -0.441406 0.765625 -0.253906 0.796875 -0.203125 C 0.804688 -0.171875 0.816406 -0.140625 0.828125 -0.109375 C 0.847656 -0.0859375 0.875 -0.0703125 0.90625 -0.0625 C 0.976562 -0.0507812 1.066406 -0.046875 1.171875 -0.046875 L 1.1875 0 L 0.171875 0 L 0.171875 -0.046875 C 0.285156 -0.046875 0.367188 -0.0664062 0.421875 -0.109375 C 0.472656 -0.148438 0.5 -0.367188 0.5 -0.765625 L 0.5 -1.59375 C 0.5 -1.832031 0.492188 -2 0.484375 -2.09375 C 0.472656 -2.1875 0.453125 -2.242188 0.421875 -2.265625 C 0.367188 -2.304688 0.285156 -2.328125 0.171875 -2.328125 L 0.171875 -2.359375 Z M 1.75 -2.359375 "/></g></g><g style="fill:#ffffff;fill-opacity:1;"><g transform="translate(100.035851, 22.640929)"><path style="stroke:none" d="M 2.234375 -1.59375 L 2.234375 -0.9375 C 2.234375 -0.78125 2.210938 -0.644531 2.171875 -0.53125 C 2.140625 -0.414062 2.09375 -0.320312 2.03125 -0.25 C 1.976562 -0.1875 1.910156 -0.128906 1.828125 -0.078125 C 1.691406 -0.00390625 1.535156 0.03125 1.359375 0.03125 C 0.742188 0.03125 0.4375 -0.28125 0.4375 -0.90625 L 0.4375 -1.59375 C 0.4375 -1.832031 0.425781 -1.992188 0.40625 -2.078125 C 0.394531 -2.171875 0.378906 -2.234375 0.359375 -2.265625 C 0.304688 -2.304688 0.222656 -2.328125 0.109375 -2.328125 L 0.09375 -2.359375 L 1.015625 -2.359375 L 1 -2.328125 C 0.945312 -2.328125 0.90625 -2.320312 0.875 -2.3125 C 0.84375 -2.3125 0.8125 -2.300781 0.78125 -2.28125 C 0.757812 -2.257812 0.738281 -2.234375 0.71875 -2.203125 C 0.707031 -2.179688 0.695312 -2.140625 0.6875 -2.078125 C 0.675781 -1.992188 0.671875 -1.832031 0.671875 -1.59375 L 0.671875 -0.890625 C 0.671875 -0.597656 0.734375 -0.382812 0.859375 -0.25 C 0.992188 -0.125 1.171875 -0.0625 1.390625 -0.0625 C 1.609375 -0.0625 1.789062 -0.128906 1.9375 -0.265625 C 2.082031 -0.410156 2.15625 -0.628906 2.15625 -0.921875 L 2.15625 -1.59375 C 2.15625 -1.820312 2.144531 -1.984375 2.125 -2.078125 C 2.101562 -2.179688 2.066406 -2.25 2.015625 -2.28125 C 1.972656 -2.3125 1.894531 -2.328125 1.78125 -2.328125 L 1.78125 -2.359375 L 2.609375 -2.359375 L 2.609375 -2.328125 C 2.492188 -2.328125 2.410156 -2.3125 2.359375 -2.28125 C 2.316406 -2.25 2.285156 -2.179688 2.265625 -2.078125 C 2.242188 -1.984375 2.234375 -1.820312 2.234375 -1.59375 Z M 2.234375 -1.59375 "/></g></g><g style="fill:#ffffff;fill-opacity:1;"><g transform="translate(102.706956, 22.640929)"><path style="stroke:none" d="M 0.046875 -2.359375 L 2 -2.359375 L 2 -1.875 L 1.953125 -1.890625 C 1.953125 -2.160156 1.679688 -2.296875 1.140625 -2.296875 L 1.140625 -0.765625 C 1.140625 -0.429688 1.160156 -0.226562 1.203125 -0.15625 C 1.210938 -0.125 1.234375 -0.0976562 1.265625 -0.078125 C 1.304688 -0.0546875 1.34375 -0.046875 1.375 -0.046875 C 1.414062 -0.046875 1.46875 -0.046875 1.53125 -0.046875 L 1.546875 0 L 0.5 0 L 0.515625 -0.046875 C 0.578125 -0.046875 0.628906 -0.046875 0.671875 -0.046875 C 0.710938 -0.046875 0.75 -0.0546875 0.78125 -0.078125 C 0.8125 -0.109375 0.832031 -0.132812 0.84375 -0.15625 C 0.863281 -0.175781 0.878906 -0.21875 0.890625 -0.28125 C 0.898438 -0.363281 0.90625 -0.523438 0.90625 -0.765625 L 0.90625 -2.296875 C 0.363281 -2.296875 0.09375 -2.160156 0.09375 -1.890625 L 0.046875 -1.875 Z M 0.046875 -2.359375 "/></g></g><g style="fill:#ffffff;fill-opacity:1;"><g transform="translate(104.750754, 22.640929)"><path style="stroke:none" d="M 2.234375 -1.59375 L 2.234375 -0.9375 C 2.234375 -0.78125 2.210938 -0.644531 2.171875 -0.53125 C 2.140625 -0.414062 2.09375 -0.320312 2.03125 -0.25 C 1.976562 -0.1875 1.910156 -0.128906 1.828125 -0.078125 C 1.691406 -0.00390625 1.535156 0.03125 1.359375 0.03125 C 0.742188 0.03125 0.4375 -0.28125 0.4375 -0.90625 L 0.4375 -1.59375 C 0.4375 -1.832031 0.425781 -1.992188 0.40625 -2.078125 C 0.394531 -2.171875 0.378906 -2.234375 0.359375 -2.265625 C 0.304688 -2.304688 0.222656 -2.328125 0.109375 -2.328125 L 0.09375 -2.359375 L 1.015625 -2.359375 L 1 -2.328125 C 0.945312 -2.328125 0.90625 -2.320312 0.875 -2.3125 C 0.84375 -2.3125 0.8125 -2.300781 0.78125 -2.28125 C 0.757812 -2.257812 0.738281 -2.234375 0.71875 -2.203125 C 0.707031 -2.179688 0.695312 -2.140625 0.6875 -2.078125 C 0.675781 -1.992188 0.671875 -1.832031 0.671875 -1.59375 L 0.671875 -0.890625 C 0.671875 -0.597656 0.734375 -0.382812 0.859375 -0.25 C 0.992188 -0.125 1.171875 -0.0625 1.390625 -0.0625 C 1.609375 -0.0625 1.789062 -0.128906 1.9375 -0.265625 C 2.082031 -0.410156 2.15625 -0.628906 2.15625 -0.921875 L 2.15625 -1.59375 C 2.15625 -1.820312 2.144531 -1.984375 2.125 -2.078125 C 2.101562 -2.179688 2.066406 -2.25 2.015625 -2.28125 C 1.972656 -2.3125 1.894531 -2.328125 1.78125 -2.328125 L 1.78125 -2.359375 L 2.609375 -2.359375 L 2.609375 -2.328125 C 2.492188 -2.328125 2.410156 -2.3125 2.359375 -2.28125 C 2.316406 -2.25 2.285156 -2.179688 2.265625 -2.078125 C 2.242188 -1.984375 2.234375 -1.820312 2.234375 -1.59375 Z M 2.234375 -1.59375 "/></g></g><g style="fill:#ffffff;fill-opacity:1;"><g transform="translate(107.42186, 22.640929)"><path style="stroke:none" d="M 1.890625 0 C 1.835938 0 1.78125 -0.0234375 1.71875 -0.078125 C 1.664062 -0.140625 1.617188 -0.210938 1.578125 -0.296875 C 1.535156 -0.378906 1.484375 -0.472656 1.421875 -0.578125 C 1.367188 -0.679688 1.3125 -0.773438 1.25 -0.859375 C 1.1875 -0.953125 1.109375 -1.023438 1.015625 -1.078125 C 0.929688 -1.140625 0.835938 -1.175781 0.734375 -1.1875 L 0.734375 -0.765625 C 0.734375 -0.515625 0.738281 -0.347656 0.75 -0.265625 C 0.769531 -0.179688 0.796875 -0.128906 0.828125 -0.109375 C 0.878906 -0.0664062 0.960938 -0.046875 1.078125 -0.046875 L 1.078125 0 L 0.171875 0 L 0.1875 -0.046875 C 0.289062 -0.046875 0.367188 -0.0625 0.421875 -0.09375 C 0.460938 -0.132812 0.488281 -0.25 0.5 -0.4375 C 0.5 -0.507812 0.5 -0.617188 0.5 -0.765625 L 0.5 -1.609375 C 0.5 -1.859375 0.492188 -2.023438 0.484375 -2.109375 C 0.472656 -2.191406 0.453125 -2.242188 0.421875 -2.265625 C 0.367188 -2.304688 0.289062 -2.328125 0.1875 -2.328125 L 0.171875 -2.359375 L 0.953125 -2.359375 C 1.523438 -2.359375 1.8125 -2.164062 1.8125 -1.78125 C 1.8125 -1.625 1.753906 -1.488281 1.640625 -1.375 C 1.523438 -1.257812 1.382812 -1.195312 1.21875 -1.1875 C 1.382812 -1.082031 1.535156 -0.898438 1.671875 -0.640625 C 1.722656 -0.546875 1.78125 -0.453125 1.84375 -0.359375 C 1.976562 -0.148438 2.148438 -0.046875 2.359375 -0.046875 L 2.359375 0 Z M 0.734375 -2.28125 L 0.734375 -1.25 L 0.953125 -1.25 C 1.117188 -1.25 1.257812 -1.289062 1.375 -1.375 C 1.488281 -1.46875 1.546875 -1.597656 1.546875 -1.765625 C 1.546875 -2.109375 1.347656 -2.28125 0.953125 -2.28125 Z M 0.734375 -2.28125 "/></g></g><g style="fill:#ffffff;fill-opacity:1;"><g transform="translate(109.614052, 22.640929)"><path style="stroke:none" d="M 2.234375 -1.59375 L 2.234375 -0.9375 C 2.234375 -0.78125 2.210938 -0.644531 2.171875 -0.53125 C 2.140625 -0.414062 2.09375 -0.320312 2.03125 -0.25 C 1.976562 -0.1875 1.910156 -0.128906 1.828125 -0.078125 C 1.691406 -0.00390625 1.535156 0.03125 1.359375 0.03125 C 0.742188 0.03125 0.4375 -0.28125 0.4375 -0.90625 L 0.4375 -1.59375 C 0.4375 -1.832031 0.425781 -1.992188 0.40625 -2.078125 C 0.394531 -2.171875 0.378906 -2.234375 0.359375 -2.265625 C 0.304688 -2.304688 0.222656 -2.328125 0.109375 -2.328125 L 0.09375 -2.359375 L 1.015625 -2.359375 L 1 -2.328125 C 0.945312 -2.328125 0.90625 -2.320312 0.875 -2.3125 C 0.84375 -2.3125 0.8125 -2.300781 0.78125 -2.28125 C 0.757812 -2.257812 0.738281 -2.234375 0.71875 -2.203125 C 0.707031 -2.179688 0.695312 -2.140625 0.6875 -2.078125 C 0.675781 -1.992188 0.671875 -1.832031 0.671875 -1.59375 L 0.671875 -0.890625 C 0.671875 -0.597656 0.734375 -0.382812 0.859375 -0.25 C 0.992188 -0.125 1.171875 -0.0625 1.390625 -0.0625 C 1.609375 -0.0625 1.789062 -0.128906 1.9375 -0.265625 C 2.082031 -0.410156 2.15625 -0.628906 2.15625 -0.921875 L 2.15625 -1.59375 C 2.15625 -1.820312 2.144531 -1.984375 2.125 -2.078125 C 2.101562 -2.179688 2.066406 -2.25 2.015625 -2.28125 C 1.972656 -2.3125 1.894531 -2.328125 1.78125 -2.328125 L 1.78125 -2.359375 L 2.609375 -2.359375 L 2.609375 -2.328125 C 2.492188 -2.328125 2.410156 -2.3125 2.359375 -2.28125 C 2.316406 -2.25 2.285156 -2.179688 2.265625 -2.078125 C 2.242188 -1.984375 2.234375 -1.820312 2.234375 -1.59375 Z M 2.234375 -1.59375 "/></g></g><g style="fill:#ffffff;fill-opacity:1;"><g transform="translate(112.285157, 22.640929)"><path style="stroke:none" d="M 2.78125 -1.59375 L 2.78125 -0.765625 C 2.78125 -0.523438 2.785156 -0.359375 2.796875 -0.265625 C 2.816406 -0.179688 2.835938 -0.128906 2.859375 -0.109375 C 2.910156 -0.0664062 2.992188 -0.046875 3.109375 -0.046875 L 3.125 0 L 2.21875 0 L 2.21875 -0.046875 C 2.332031 -0.046875 2.414062 -0.0625 2.46875 -0.09375 C 2.507812 -0.132812 2.53125 -0.25 2.53125 -0.4375 C 2.539062 -0.507812 2.546875 -0.617188 2.546875 -0.765625 L 2.546875 -2.1875 L 1.59375 -0.03125 L 0.625 -1.859375 L 0.625 -0.765625 C 0.625 -0.546875 0.632812 -0.382812 0.65625 -0.28125 C 0.675781 -0.175781 0.707031 -0.109375 0.75 -0.078125 C 0.800781 -0.0546875 0.882812 -0.046875 1 -0.046875 L 1 0 L 0.171875 0 L 0.171875 -0.046875 C 0.253906 -0.046875 0.316406 -0.0507812 0.359375 -0.0625 C 0.398438 -0.0703125 0.4375 -0.101562 0.46875 -0.15625 C 0.5 -0.207031 0.519531 -0.28125 0.53125 -0.375 C 0.539062 -0.46875 0.546875 -0.597656 0.546875 -0.765625 L 0.546875 -1.59375 C 0.546875 -1.769531 0.539062 -1.898438 0.53125 -1.984375 C 0.519531 -2.078125 0.5 -2.148438 0.46875 -2.203125 C 0.4375 -2.253906 0.398438 -2.285156 0.359375 -2.296875 C 0.316406 -2.316406 0.253906 -2.328125 0.171875 -2.328125 L 0.171875 -2.359375 L 0.625 -2.359375 L 1.671875 -0.390625 L 2.53125 -2.359375 L 3.125 -2.359375 L 3.109375 -2.328125 C 2.992188 -2.328125 2.910156 -2.304688 2.859375 -2.265625 C 2.804688 -2.210938 2.78125 -1.988281 2.78125 -1.59375 Z M 2.78125 -1.59375 "/></g></g><g style="fill:#ffffff;fill-opacity:1;"><g transform="translate(115.570074, 22.640929)"><path style="stroke:none" d=""/></g><g transform="translate(116.41322, 22.640929)"><path style="stroke:none" d="M 1.5 -0.046875 C 1.582031 -0.046875 1.640625 -0.0507812 1.671875 -0.0625 C 1.710938 -0.0703125 1.734375 -0.101562 1.734375 -0.15625 C 1.734375 -0.21875 1.671875 -0.410156 1.546875 -0.734375 L 0.515625 -0.734375 C 0.421875 -0.453125 0.375 -0.273438 0.375 -0.203125 C 0.375 -0.128906 0.390625 -0.0820312 0.421875 -0.0625 C 0.460938 -0.0507812 0.53125 -0.046875 0.625 -0.046875 L 0.640625 0 L -0.125 0 L -0.109375 -0.046875 C -0.046875 -0.046875 0 -0.0507812 0.03125 -0.0625 C 0.0703125 -0.0703125 0.113281 -0.0976562 0.15625 -0.140625 C 0.195312 -0.191406 0.238281 -0.265625 0.28125 -0.359375 C 0.320312 -0.453125 0.375 -0.582031 0.4375 -0.75 L 0.734375 -1.609375 C 0.835938 -1.921875 0.890625 -2.109375 0.890625 -2.171875 C 0.890625 -2.234375 0.875 -2.273438 0.84375 -2.296875 C 0.8125 -2.316406 0.75 -2.328125 0.65625 -2.328125 L 0.65625 -2.359375 L 1.21875 -2.359375 L 1.8125 -0.75 C 1.90625 -0.476562 1.96875 -0.304688 2 -0.234375 C 2.039062 -0.160156 2.078125 -0.113281 2.109375 -0.09375 C 2.171875 -0.0625 2.242188 -0.046875 2.328125 -0.046875 L 2.328125 0 L 1.484375 0 Z M 1.015625 -2.1875 L 0.546875 -0.8125 L 1.515625 -0.8125 Z M 1.015625 -2.1875 "/></g></g><g style="fill:#ffffff;fill-opacity:1;"><g transform="translate(118.622282, 22.640929)"><path style="stroke:none" d="M 1.875 0 L 0.171875 0 L 0.171875 -0.046875 C 0.285156 -0.046875 0.367188 -0.0664062 0.421875 -0.109375 C 0.472656 -0.148438 0.5 -0.367188 0.5 -0.765625 L 0.5 -1.59375 C 0.5 -1.832031 0.492188 -2 0.484375 -2.09375 C 0.472656 -2.1875 0.453125 -2.242188 0.421875 -2.265625 C 0.367188 -2.304688 0.285156 -2.328125 0.171875 -2.328125 L 0.171875 -2.359375 L 1.75 -2.359375 L 1.75 -1.875 L 1.703125 -1.890625 C 1.703125 -2.035156 1.625 -2.132812 1.46875 -2.1875 C 1.3125 -2.25 1.066406 -2.28125 0.734375 -2.28125 L 0.734375 -1.21875 C 0.953125 -1.21875 1.109375 -1.226562 1.203125 -1.25 C 1.296875 -1.28125 1.351562 -1.316406 1.375 -1.359375 C 1.40625 -1.398438 1.421875 -1.476562 1.421875 -1.59375 L 1.46875 -1.59375 L 1.46875 -0.78125 L 1.421875 -0.78125 C 1.421875 -0.894531 1.40625 -0.972656 1.375 -1.015625 C 1.351562 -1.054688 1.296875 -1.085938 1.203125 -1.109375 C 1.109375 -1.128906 0.953125 -1.140625 0.734375 -1.140625 L 0.734375 -0.71875 C 0.734375 -0.476562 0.742188 -0.316406 0.765625 -0.234375 C 0.785156 -0.160156 0.820312 -0.109375 0.875 -0.078125 C 1.507812 -0.078125 1.828125 -0.210938 1.828125 -0.484375 L 1.875 -0.484375 Z M 1.875 0 "/></g></g><g style="fill:#ffffff;fill-opacity:1;"><g transform="translate(120.699809, 22.640929)"><path style="stroke:none" d="M 0.84375 -2.359375 C 1.238281 -2.359375 1.53125 -2.328125 1.71875 -2.265625 C 1.8125 -2.234375 1.90625 -2.1875 2 -2.125 C 2.101562 -2.0625 2.179688 -1.988281 2.234375 -1.90625 C 2.296875 -1.832031 2.347656 -1.734375 2.390625 -1.609375 C 2.429688 -1.484375 2.453125 -1.34375 2.453125 -1.1875 C 2.453125 -1.03125 2.429688 -0.890625 2.390625 -0.765625 C 2.347656 -0.640625 2.296875 -0.535156 2.234375 -0.453125 C 2.179688 -0.367188 2.109375 -0.296875 2.015625 -0.234375 C 1.921875 -0.179688 1.832031 -0.140625 1.75 -0.109375 C 1.675781 -0.078125 1.585938 -0.0507812 1.484375 -0.03125 C 1.347656 -0.0078125 1.210938 0 1.078125 0 L 0.171875 0 L 0.171875 -0.046875 C 0.285156 -0.046875 0.367188 -0.0664062 0.421875 -0.109375 C 0.472656 -0.148438 0.5 -0.367188 0.5 -0.765625 L 0.5 -1.59375 C 0.5 -1.832031 0.492188 -2 0.484375 -2.09375 C 0.472656 -2.1875 0.453125 -2.242188 0.421875 -2.265625 C 0.367188 -2.304688 0.285156 -2.328125 0.171875 -2.328125 L 0.171875 -2.359375 Z M 0.875 -0.078125 C 0.894531 -0.078125 0.945312 -0.078125 1.03125 -0.078125 C 1.113281 -0.078125 1.207031 -0.0820312 1.3125 -0.09375 C 1.414062 -0.113281 1.519531 -0.148438 1.625 -0.203125 C 1.726562 -0.253906 1.816406 -0.316406 1.890625 -0.390625 C 1.972656 -0.472656 2.039062 -0.582031 2.09375 -0.71875 C 2.144531 -0.851562 2.171875 -1.003906 2.171875 -1.171875 C 2.171875 -1.347656 2.144531 -1.503906 2.09375 -1.640625 C 2.039062 -1.773438 1.972656 -1.878906 1.890625 -1.953125 C 1.816406 -2.035156 1.726562 -2.101562 1.625 -2.15625 C 1.4375 -2.238281 1.226562 -2.28125 1 -2.28125 C 0.90625 -2.28125 0.820312 -2.273438 0.75 -2.265625 L 0.75 -0.71875 C 0.75 -0.476562 0.753906 -0.316406 0.765625 -0.234375 C 0.773438 -0.160156 0.8125 -0.109375 0.875 -0.078125 Z M 0.875 -0.078125 "/></g></g><g style="fill:#ffffff;fill-opacity:1;"><g transform="translate(123.276479, 22.640929)"><path style="stroke:none" d="M 0.75 -1.59375 L 0.75 -0.765625 C 0.75 -0.523438 0.753906 -0.359375 0.765625 -0.265625 C 0.773438 -0.179688 0.796875 -0.128906 0.828125 -0.109375 C 0.878906 -0.0664062 0.960938 -0.046875 1.078125 -0.046875 L 1.078125 0 L 0.171875 0 L 0.171875 -0.046875 C 0.234375 -0.046875 0.28125 -0.046875 0.3125 -0.046875 C 0.34375 -0.046875 0.367188 -0.0546875 0.390625 -0.078125 C 0.421875 -0.0976562 0.441406 -0.117188 0.453125 -0.140625 C 0.460938 -0.171875 0.472656 -0.21875 0.484375 -0.28125 C 0.492188 -0.363281 0.5 -0.523438 0.5 -0.765625 L 0.5 -1.59375 C 0.5 -1.832031 0.492188 -2 0.484375 -2.09375 C 0.472656 -2.1875 0.453125 -2.242188 0.421875 -2.265625 C 0.367188 -2.304688 0.285156 -2.328125 0.171875 -2.328125 L 0.171875 -2.359375 L 1.078125 -2.359375 L 1.078125 -2.328125 C 0.960938 -2.328125 0.878906 -2.304688 0.828125 -2.265625 C 0.773438 -2.210938 0.75 -1.988281 0.75 -1.59375 Z M 0.75 -1.59375 "/></g></g><g style="fill:#ffffff;fill-opacity:1;"><g transform="translate(124.524343, 22.640929)"><path style="stroke:none" d="M 1.75 -2.359375 L 1.75 -1.875 L 1.703125 -1.890625 C 1.703125 -2.035156 1.625 -2.132812 1.46875 -2.1875 C 1.3125 -2.25 1.070312 -2.28125 0.75 -2.28125 L 0.75 -1.21875 C 0.875 -1.226562 0.972656 -1.238281 1.046875 -1.25 C 1.117188 -1.257812 1.175781 -1.28125 1.21875 -1.3125 C 1.257812 -1.34375 1.28125 -1.375 1.28125 -1.40625 C 1.289062 -1.445312 1.296875 -1.507812 1.296875 -1.59375 L 1.34375 -1.59375 L 1.34375 -0.78125 L 1.296875 -0.78125 C 1.296875 -0.882812 1.285156 -0.957031 1.265625 -1 C 1.242188 -1.050781 1.191406 -1.085938 1.109375 -1.109375 C 1.035156 -1.128906 0.914062 -1.140625 0.75 -1.140625 L 0.75 -0.765625 C 0.75 -0.441406 0.765625 -0.253906 0.796875 -0.203125 C 0.804688 -0.171875 0.816406 -0.140625 0.828125 -0.109375 C 0.847656 -0.0859375 0.875 -0.0703125 0.90625 -0.0625 C 0.976562 -0.0507812 1.066406 -0.046875 1.171875 -0.046875 L 1.1875 0 L 0.171875 0 L 0.171875 -0.046875 C 0.285156 -0.046875 0.367188 -0.0664062 0.421875 -0.109375 C 0.472656 -0.148438 0.5 -0.367188 0.5 -0.765625 L 0.5 -1.59375 C 0.5 -1.832031 0.492188 -2 0.484375 -2.09375 C 0.472656 -2.1875 0.453125 -2.242188 0.421875 -2.265625 C 0.367188 -2.304688 0.285156 -2.328125 0.171875 -2.328125 L 0.171875 -2.359375 Z M 1.75 -2.359375 "/></g></g><g style="fill:#ffffff;fill-opacity:1;"><g transform="translate(126.342178, 22.640929)"><path style="stroke:none" d="M 0.75 -1.59375 L 0.75 -0.765625 C 0.75 -0.523438 0.753906 -0.359375 0.765625 -0.265625 C 0.773438 -0.179688 0.796875 -0.128906 0.828125 -0.109375 C 0.878906 -0.0664062 0.960938 -0.046875 1.078125 -0.046875 L 1.078125 0 L 0.171875 0 L 0.171875 -0.046875 C 0.234375 -0.046875 0.28125 -0.046875 0.3125 -0.046875 C 0.34375 -0.046875 0.367188 -0.0546875 0.390625 -0.078125 C 0.421875 -0.0976562 0.441406 -0.117188 0.453125 -0.140625 C 0.460938 -0.171875 0.472656 -0.21875 0.484375 -0.28125 C 0.492188 -0.363281 0.5 -0.523438 0.5 -0.765625 L 0.5 -1.59375 C 0.5 -1.832031 0.492188 -2 0.484375 -2.09375 C 0.472656 -2.1875 0.453125 -2.242188 0.421875 -2.265625 C 0.367188 -2.304688 0.285156 -2.328125 0.171875 -2.328125 L 0.171875 -2.359375 L 1.078125 -2.359375 L 1.078125 -2.328125 C 0.960938 -2.328125 0.878906 -2.304688 0.828125 -2.265625 C 0.773438 -2.210938 0.75 -1.988281 0.75 -1.59375 Z M 0.75 -1.59375 "/></g></g><g style="fill:#ffffff;fill-opacity:1;"><g transform="translate(127.590043, 22.640929)"><path style="stroke:none" d="M 2.296875 -0.265625 C 2.035156 -0.0664062 1.722656 0.03125 1.359375 0.03125 C 1.003906 0.03125 0.71875 -0.0820312 0.5 -0.3125 C 0.28125 -0.539062 0.171875 -0.828125 0.171875 -1.171875 C 0.171875 -1.523438 0.273438 -1.816406 0.484375 -2.046875 C 0.703125 -2.273438 0.988281 -2.390625 1.34375 -2.390625 C 1.507812 -2.390625 1.675781 -2.367188 1.84375 -2.328125 C 2.007812 -2.285156 2.132812 -2.238281 2.21875 -2.1875 L 2.21875 -1.75 L 2.1875 -1.765625 C 2.132812 -1.960938 2.035156 -2.101562 1.890625 -2.1875 C 1.753906 -2.269531 1.570312 -2.3125 1.34375 -2.3125 C 1.0625 -2.3125 0.84375 -2.207031 0.6875 -2 C 0.539062 -1.789062 0.46875 -1.519531 0.46875 -1.1875 C 0.46875 -0.851562 0.546875 -0.582031 0.703125 -0.375 C 0.859375 -0.164062 1.082031 -0.0625 1.375 -0.0625 C 1.582031 -0.0625 1.753906 -0.0859375 1.890625 -0.140625 C 2.023438 -0.191406 2.160156 -0.265625 2.296875 -0.359375 Z M 2.296875 -0.265625 "/></g></g><g style="fill:#ffffff;fill-opacity:1;"><g transform="translate(129.99134, 22.640929)"><path style="stroke:none" d="M 1.5 -0.046875 C 1.582031 -0.046875 1.640625 -0.0507812 1.671875 -0.0625 C 1.710938 -0.0703125 1.734375 -0.101562 1.734375 -0.15625 C 1.734375 -0.21875 1.671875 -0.410156 1.546875 -0.734375 L 0.515625 -0.734375 C 0.421875 -0.453125 0.375 -0.273438 0.375 -0.203125 C 0.375 -0.128906 0.390625 -0.0820312 0.421875 -0.0625 C 0.460938 -0.0507812 0.53125 -0.046875 0.625 -0.046875 L 0.640625 0 L -0.125 0 L -0.109375 -0.046875 C -0.046875 -0.046875 0 -0.0507812 0.03125 -0.0625 C 0.0703125 -0.0703125 0.113281 -0.0976562 0.15625 -0.140625 C 0.195312 -0.191406 0.238281 -0.265625 0.28125 -0.359375 C 0.320312 -0.453125 0.375 -0.582031 0.4375 -0.75 L 0.734375 -1.609375 C 0.835938 -1.921875 0.890625 -2.109375 0.890625 -2.171875 C 0.890625 -2.234375 0.875 -2.273438 0.84375 -2.296875 C 0.8125 -2.316406 0.75 -2.328125 0.65625 -2.328125 L 0.65625 -2.359375 L 1.21875 -2.359375 L 1.8125 -0.75 C 1.90625 -0.476562 1.96875 -0.304688 2 -0.234375 C 2.039062 -0.160156 2.078125 -0.113281 2.109375 -0.09375 C 2.171875 -0.0625 2.242188 -0.046875 2.328125 -0.046875 L 2.328125 0 L 1.484375 0 Z M 1.015625 -2.1875 L 0.546875 -0.8125 L 1.515625 -0.8125 Z M 1.015625 -2.1875 "/></g></g><g style="fill:#ffffff;fill-opacity:1;"><g transform="translate(132.200394, 22.640929)"><path style="stroke:none" d="M 0.046875 -2.359375 L 2 -2.359375 L 2 -1.875 L 1.953125 -1.890625 C 1.953125 -2.160156 1.679688 -2.296875 1.140625 -2.296875 L 1.140625 -0.765625 C 1.140625 -0.429688 1.160156 -0.226562 1.203125 -0.15625 C 1.210938 -0.125 1.234375 -0.0976562 1.265625 -0.078125 C 1.304688 -0.0546875 1.34375 -0.046875 1.375 -0.046875 C 1.414062 -0.046875 1.46875 -0.046875 1.53125 -0.046875 L 1.546875 0 L 0.5 0 L 0.515625 -0.046875 C 0.578125 -0.046875 0.628906 -0.046875 0.671875 -0.046875 C 0.710938 -0.046875 0.75 -0.0546875 0.78125 -0.078125 C 0.8125 -0.109375 0.832031 -0.132812 0.84375 -0.15625 C 0.863281 -0.175781 0.878906 -0.21875 0.890625 -0.28125 C 0.898438 -0.363281 0.90625 -0.523438 0.90625 -0.765625 L 0.90625 -2.296875 C 0.363281 -2.296875 0.09375 -2.160156 0.09375 -1.890625 L 0.046875 -1.875 Z M 0.046875 -2.359375 "/></g></g><g clip-rule="nonzero" clip-path="url(#133539cf0b)"><g clip-rule="nonzero" clip-path="url(#cce1301fbf)"><path style=" stroke:none;fill-rule:nonzero;fill:#1d333b;fill-opacity:1;" d="M 15.039062 27.308594 L 15.796875 27.308594 L 15.796875 28.03125 L 15.039062 28.03125 Z M 15.039062 27.308594 "/></g></g><g clip-rule="nonzero" clip-path="url(#14550c333e)"><g clip-rule="nonzero" clip-path="url(#5107bc09fb)"><path style=" stroke:none;fill-rule:nonzero;fill:#ffffff;fill-opacity:1;" d="M 16.3125 3.292969 L 27.660156 3.292969 L 27.660156 10 L 16.3125 10 Z M 16.3125 3.292969 "/></g></g><g style="fill:#ffffff;fill-opacity:1;"><g transform="translate(3.966134, 25.020889)"><path style="stroke:none" d="M 2.625 -3.890625 L 1.34375 -3.890625 L 1.34375 -2.328125 L 2.0625 -2.328125 L 2.25 -2.8125 L 2.5 -2.78125 L 2.5 -1.609375 L 2.25 -1.578125 L 2.0625 -2.0625 L 1.34375 -2.0625 L 1.34375 -0.25 L 2.65625 -0.25 L 2.984375 -1.140625 L 3.21875 -1.09375 L 3.21875 0 L 0.265625 0 L 0.21875 -0.25 L 0.71875 -0.4375 L 0.71875 -3.6875 L 0.203125 -3.890625 L 0.25 -4.140625 L 3.125 -4.140625 L 3.125 -3.25 L 2.875 -3.203125 Z M 2.625 -3.890625 "/></g></g><g style="fill:#ffffff;fill-opacity:1;"><g transform="translate(7.984683, 25.020889)"><path style="stroke:none" d="M 1.859375 -3.890625 L 1.34375 -3.890625 L 1.34375 -0.25 L 1.859375 -0.25 C 2.191406 -0.25 2.46875 -0.332031 2.6875 -0.5 C 2.90625 -0.675781 3.066406 -0.90625 3.171875 -1.1875 C 3.273438 -1.46875 3.328125 -1.773438 3.328125 -2.109375 C 3.328125 -2.441406 3.273438 -2.738281 3.171875 -3 C 3.066406 -3.269531 2.90625 -3.484375 2.6875 -3.640625 C 2.46875 -3.804688 2.191406 -3.890625 1.859375 -3.890625 Z M 1.84375 0 L 0.25 0 L 0.21875 -0.25 L 0.71875 -0.4375 L 0.71875 -3.6875 L 0.203125 -3.890625 L 0.25 -4.140625 L 1.859375 -4.140625 C 2.347656 -4.140625 2.753906 -4.046875 3.078125 -3.859375 C 3.398438 -3.679688 3.632812 -3.4375 3.78125 -3.125 C 3.9375 -2.820312 4.015625 -2.476562 4.015625 -2.09375 C 4.015625 -1.8125 3.96875 -1.539062 3.875 -1.28125 C 3.789062 -1.03125 3.660156 -0.804688 3.484375 -0.609375 C 3.304688 -0.421875 3.078125 -0.269531 2.796875 -0.15625 C 2.523438 -0.0507812 2.207031 0 1.84375 0 Z M 1.84375 0 "/></g></g><g style="fill:#ffffff;fill-opacity:1;"><g transform="translate(12.76446, 25.020889)"><path style="stroke:none" d="M 2.25 0.09375 C 2.039062 0.09375 1.84375 0.0664062 1.65625 0.015625 C 1.476562 -0.0234375 1.3125 -0.113281 1.15625 -0.25 C 1.007812 -0.382812 0.894531 -0.570312 0.8125 -0.8125 C 0.726562 -1.050781 0.6875 -1.363281 0.6875 -1.75 L 0.6875 -3.6875 L 0.171875 -3.890625 L 0.21875 -4.140625 L 1.796875 -4.140625 L 1.828125 -3.890625 L 1.3125 -3.6875 L 1.3125 -1.71875 C 1.3125 -1.175781 1.390625 -0.785156 1.546875 -0.546875 C 1.703125 -0.304688 1.96875 -0.1875 2.34375 -0.1875 C 3.070312 -0.1875 3.4375 -0.691406 3.4375 -1.703125 L 3.4375 -3.6875 L 2.921875 -3.890625 L 2.96875 -4.140625 L 4.15625 -4.140625 L 4.203125 -3.890625 L 3.6875 -3.6875 L 3.6875 -1.75 C 3.6875 -1.363281 3.644531 -1.050781 3.5625 -0.8125 C 3.488281 -0.570312 3.382812 -0.382812 3.25 -0.25 C 3.113281 -0.113281 2.957031 -0.0234375 2.78125 0.015625 C 2.601562 0.0664062 2.425781 0.09375 2.25 0.09375 Z M 2.25 0.09375 "/></g></g><g style="fill:#ffffff;fill-opacity:1;"><g transform="translate(17.638653, 25.020889)"><path style="stroke:none" d="M 1.34375 -3.890625 L 1.34375 -0.25 L 2.203125 -0.25 C 2.359375 -0.25 2.492188 -0.289062 2.609375 -0.375 C 2.734375 -0.46875 2.828125 -0.582031 2.890625 -0.71875 C 2.960938 -0.863281 3 -1.023438 3 -1.203125 C 3 -1.367188 2.957031 -1.523438 2.875 -1.671875 C 2.800781 -1.816406 2.691406 -1.929688 2.546875 -2.015625 C 2.410156 -2.109375 2.25 -2.15625 2.0625 -2.15625 L 1.59375 -2.15625 L 1.59375 -2.40625 L 1.859375 -2.40625 C 1.992188 -2.40625 2.113281 -2.4375 2.21875 -2.5 C 2.332031 -2.570312 2.421875 -2.664062 2.484375 -2.78125 C 2.554688 -2.894531 2.59375 -3.015625 2.59375 -3.140625 C 2.59375 -3.347656 2.535156 -3.523438 2.421875 -3.671875 C 2.304688 -3.816406 2.101562 -3.890625 1.8125 -3.890625 Z M 2.375 0 L 0.265625 0 L 0.21875 -0.25 L 0.71875 -0.4375 L 0.71875 -3.6875 L 0.203125 -3.890625 L 0.25 -4.140625 L 2.28125 -4.140625 C 2.46875 -4.140625 2.640625 -4.09375 2.796875 -4 C 2.953125 -3.914062 3.070312 -3.804688 3.15625 -3.671875 C 3.25 -3.535156 3.296875 -3.378906 3.296875 -3.203125 C 3.296875 -2.984375 3.222656 -2.785156 3.078125 -2.609375 C 2.941406 -2.441406 2.769531 -2.335938 2.5625 -2.296875 L 2.5625 -2.265625 C 2.769531 -2.265625 2.957031 -2.210938 3.125 -2.109375 C 3.300781 -2.003906 3.441406 -1.867188 3.546875 -1.703125 C 3.648438 -1.535156 3.703125 -1.347656 3.703125 -1.140625 C 3.703125 -0.929688 3.644531 -0.738281 3.53125 -0.5625 C 3.425781 -0.394531 3.273438 -0.257812 3.078125 -0.15625 C 2.878906 -0.0507812 2.644531 0 2.375 0 Z M 2.375 0 "/></g></g><g style="fill:#ffffff;fill-opacity:1;"><g transform="translate(22.217796, 25.020889)"><path style="stroke:none" d="M 2.625 -3.890625 L 1.34375 -3.890625 L 1.34375 -2.328125 L 2.0625 -2.328125 L 2.25 -2.8125 L 2.5 -2.78125 L 2.5 -1.609375 L 2.25 -1.578125 L 2.0625 -2.0625 L 1.34375 -2.0625 L 1.34375 -0.25 L 2.65625 -0.25 L 2.984375 -1.140625 L 3.21875 -1.09375 L 3.21875 0 L 0.265625 0 L 0.21875 -0.25 L 0.71875 -0.4375 L 0.71875 -3.6875 L 0.203125 -3.890625 L 0.25 -4.140625 L 3.125 -4.140625 L 3.125 -3.25 L 2.875 -3.203125 Z M 2.625 -3.890625 "/></g></g><g style="fill:#ffffff;fill-opacity:1;"><g transform="translate(26.236345, 25.020889)"><path style="stroke:none" d="M 0.140625 -0.25 L 0.65625 -0.4375 L 0.65625 -3.6875 L 0.140625 -3.890625 L 0.1875 -4.140625 L 1.3125 -4.140625 L 3.34375 -0.90625 L 3.34375 -3.6875 L 2.84375 -3.890625 L 2.875 -4.140625 L 4.0625 -4.140625 L 4.09375 -3.890625 L 3.59375 -3.6875 L 3.59375 0 L 3.25 0.09375 L 0.90625 -3.609375 L 0.90625 -0.4375 L 1.40625 -0.25 L 1.359375 0 L 0.1875 0 Z M 0.140625 -0.25 "/></g></g><g style="fill:#ffffff;fill-opacity:1;"><g transform="translate(31.081027, 25.020889)"><path style="stroke:none" d="M 2.28125 -0.1875 C 2.382812 -0.1875 2.503906 -0.195312 2.640625 -0.21875 C 2.785156 -0.238281 2.914062 -0.265625 3.03125 -0.296875 L 3.328125 -1.140625 L 3.578125 -1.09375 L 3.578125 -0.25 C 3.429688 -0.144531 3.238281 -0.0625 3 0 C 2.757812 0.0625 2.519531 0.09375 2.28125 0.09375 C 1.894531 0.09375 1.566406 0.0351562 1.296875 -0.078125 C 1.035156 -0.203125 0.820312 -0.367188 0.65625 -0.578125 C 0.488281 -0.785156 0.363281 -1.015625 0.28125 -1.265625 C 0.207031 -1.523438 0.171875 -1.789062 0.171875 -2.0625 C 0.171875 -2.332031 0.210938 -2.597656 0.296875 -2.859375 C 0.390625 -3.117188 0.519531 -3.351562 0.6875 -3.5625 C 0.851562 -3.769531 1.070312 -3.929688 1.34375 -4.046875 C 1.613281 -4.171875 1.925781 -4.234375 2.28125 -4.234375 C 2.550781 -4.234375 2.78125 -4.203125 2.96875 -4.140625 C 3.164062 -4.085938 3.367188 -4.003906 3.578125 -3.890625 L 3.578125 -3.078125 L 3.328125 -3.046875 L 3.046875 -3.828125 C 2.921875 -3.867188 2.789062 -3.898438 2.65625 -3.921875 C 2.519531 -3.941406 2.394531 -3.953125 2.28125 -3.953125 C 1.8125 -3.953125 1.457031 -3.800781 1.21875 -3.5 C 0.988281 -3.195312 0.875 -2.726562 0.875 -2.09375 C 0.875 -1.863281 0.890625 -1.632812 0.921875 -1.40625 C 0.960938 -1.1875 1.03125 -0.984375 1.125 -0.796875 C 1.226562 -0.617188 1.375 -0.472656 1.5625 -0.359375 C 1.75 -0.242188 1.988281 -0.1875 2.28125 -0.1875 Z M 2.28125 -0.1875 "/></g></g><g style="fill:#ffffff;fill-opacity:1;"><g transform="translate(35.341516, 25.020889)"><path style="stroke:none" d="M 4.5 -3.890625 L 4 -3.6875 L 4 -0.4375 L 4.5 -0.25 L 4.453125 0 L 2.890625 0 L 2.859375 -0.25 L 3.359375 -0.4375 L 3.359375 -2.015625 L 1.375 -2.015625 L 1.375 -0.4375 L 1.875 -0.25 L 1.84375 0 L 0.296875 0 L 0.234375 -0.25 L 0.75 -0.4375 L 0.75 -3.6875 L 0.234375 -3.890625 L 0.28125 -4.140625 L 1.84375 -4.140625 L 1.890625 -3.890625 L 1.375 -3.6875 L 1.375 -2.25 L 3.359375 -2.25 L 3.359375 -3.6875 L 2.859375 -3.890625 L 2.890625 -4.140625 L 4.46875 -4.140625 Z M 4.5 -3.890625 "/></g></g><g style="fill:#ffffff;fill-opacity:1;"><g transform="translate(5.415754, 17.440271)"><path style="stroke:none" d="M 1.328125 -1.859375 L 0.765625 -1.859375 L 0.765625 -1.1875 L 1.0625 -1.1875 L 1.15625 -1.421875 L 1.359375 -1.390625 L 1.359375 -0.734375 L 1.15625 -0.703125 L 1.0625 -0.953125 L 0.765625 -0.953125 L 0.765625 -0.203125 L 1.34375 -0.203125 L 1.5 -0.65625 L 1.703125 -0.625 L 1.703125 0 L 0.140625 0 L 0.109375 -0.203125 L 0.34375 -0.296875 L 0.34375 -1.765625 L 0.109375 -1.859375 L 0.140625 -2.0625 L 1.65625 -2.0625 L 1.65625 -1.546875 L 1.4375 -1.515625 Z M 1.328125 -1.859375 "/></g></g><g style="fill:#ffffff;fill-opacity:1;"><g transform="translate(8.816525, 17.440271)"><path style="stroke:none" d="M 0.140625 -1.5625 C 0.140625 -1.6875 0.171875 -1.789062 0.234375 -1.875 C 0.304688 -1.957031 0.394531 -2.019531 0.5 -2.0625 C 0.613281 -2.101562 0.738281 -2.125 0.875 -2.125 C 0.988281 -2.125 1.097656 -2.101562 1.203125 -2.0625 C 1.304688 -2.03125 1.40625 -1.984375 1.5 -1.921875 L 1.5 -1.46875 L 1.28125 -1.4375 L 1.15625 -1.828125 C 1.113281 -1.835938 1.066406 -1.847656 1.015625 -1.859375 C 0.960938 -1.867188 0.914062 -1.875 0.875 -1.875 C 0.757812 -1.875 0.671875 -1.847656 0.609375 -1.796875 C 0.546875 -1.753906 0.515625 -1.691406 0.515625 -1.609375 C 0.515625 -1.554688 0.53125 -1.507812 0.5625 -1.46875 C 0.601562 -1.425781 0.648438 -1.390625 0.703125 -1.359375 C 0.753906 -1.328125 0.804688 -1.296875 0.859375 -1.265625 C 0.910156 -1.242188 0.953125 -1.226562 0.984375 -1.21875 C 1.085938 -1.175781 1.1875 -1.125 1.28125 -1.0625 C 1.375 -1 1.445312 -0.925781 1.5 -0.84375 C 1.5625 -0.757812 1.59375 -0.660156 1.59375 -0.546875 C 1.59375 -0.367188 1.523438 -0.222656 1.390625 -0.109375 C 1.265625 -0.00390625 1.070312 0.046875 0.8125 0.046875 C 0.6875 0.046875 0.566406 0.03125 0.453125 0 C 0.335938 -0.03125 0.238281 -0.078125 0.15625 -0.140625 L 0.15625 -0.625 L 0.359375 -0.65625 L 0.515625 -0.265625 C 0.546875 -0.242188 0.585938 -0.226562 0.640625 -0.21875 C 0.703125 -0.207031 0.75 -0.203125 0.78125 -0.203125 C 0.90625 -0.203125 1.007812 -0.222656 1.09375 -0.265625 C 1.175781 -0.304688 1.21875 -0.367188 1.21875 -0.453125 C 1.21875 -0.503906 1.195312 -0.550781 1.15625 -0.59375 C 1.125 -0.644531 1.078125 -0.6875 1.015625 -0.71875 C 0.960938 -0.757812 0.898438 -0.789062 0.828125 -0.8125 C 0.765625 -0.84375 0.710938 -0.867188 0.671875 -0.890625 C 0.609375 -0.921875 0.546875 -0.953125 0.484375 -0.984375 C 0.429688 -1.023438 0.375 -1.066406 0.3125 -1.109375 C 0.257812 -1.160156 0.21875 -1.222656 0.1875 -1.296875 C 0.15625 -1.367188 0.140625 -1.457031 0.140625 -1.5625 Z M 0.140625 -1.5625 "/></g></g><g style="fill:#ffffff;fill-opacity:1;"><g transform="translate(12.125888, 17.440271)"><path style="stroke:none" d="M 0.125 -1.46875 L 0.125 -2.0625 L 1.890625 -2.0625 L 1.890625 -1.46875 L 1.671875 -1.4375 L 1.515625 -1.859375 L 1.203125 -1.859375 L 1.203125 -0.296875 L 1.453125 -0.203125 L 1.421875 0 L 0.578125 0 L 0.546875 -0.203125 L 0.796875 -0.296875 L 0.796875 -1.859375 L 0.484375 -1.859375 L 0.328125 -1.4375 Z M 0.125 -1.46875 "/></g></g><g style="fill:#ffffff;fill-opacity:1;"><g transform="translate(15.72127, 17.440271)"><path style="stroke:none" d="M 0.34375 -0.359375 C 0.40625 -0.359375 0.453125 -0.335938 0.484375 -0.296875 C 0.523438 -0.253906 0.546875 -0.207031 0.546875 -0.15625 C 0.546875 -0.101562 0.523438 -0.0546875 0.484375 -0.015625 C 0.453125 0.0234375 0.40625 0.046875 0.34375 0.046875 C 0.289062 0.046875 0.242188 0.0234375 0.203125 -0.015625 C 0.160156 -0.0546875 0.140625 -0.101562 0.140625 -0.15625 C 0.140625 -0.207031 0.160156 -0.253906 0.203125 -0.296875 C 0.242188 -0.335938 0.289062 -0.359375 0.34375 -0.359375 Z M 0.34375 -0.359375 "/></g></g><g style="fill:#ffffff;fill-opacity:1;"><g transform="translate(18.013346, 17.440271)"><path style="stroke:none" d=""/></g></g><g style="fill:#ffffff;fill-opacity:1;"><g transform="translate(20.343753, 17.440271)"><path style="stroke:none" d="M 1.96875 -1.4375 L 1.4375 0 L 1.21875 0.046875 L 0.703125 -1.359375 L 0.5625 -0.296875 L 0.8125 -0.203125 L 0.78125 0 L 0.125 0 L 0.078125 -0.203125 L 0.34375 -0.296875 L 0.515625 -1.765625 L 0.265625 -1.859375 L 0.296875 -2.0625 L 0.890625 -2.0625 L 1.375 -0.78125 L 1.375 -0.484375 L 1.953125 -2.0625 L 2.5625 -2.0625 L 2.59375 -1.859375 L 2.34375 -1.765625 L 2.484375 -0.296875 L 2.734375 -0.203125 L 2.703125 0 L 1.875 0 L 1.84375 -0.203125 L 2.078125 -0.296875 Z M 1.96875 -1.4375 "/></g></g><g style="fill:#ffffff;fill-opacity:1;"><g transform="translate(24.782452, 17.440271)"><path style="stroke:none" d="M 1.96875 -1.4375 L 1.4375 0 L 1.21875 0.046875 L 0.703125 -1.359375 L 0.5625 -0.296875 L 0.8125 -0.203125 L 0.78125 0 L 0.125 0 L 0.078125 -0.203125 L 0.34375 -0.296875 L 0.515625 -1.765625 L 0.265625 -1.859375 L 0.296875 -2.0625 L 0.890625 -2.0625 L 1.375 -0.78125 L 1.375 -0.484375 L 1.953125 -2.0625 L 2.5625 -2.0625 L 2.59375 -1.859375 L 2.34375 -1.765625 L 2.484375 -0.296875 L 2.734375 -0.203125 L 2.703125 0 L 1.875 0 L 1.84375 -0.203125 L 2.078125 -0.296875 Z M 1.96875 -1.4375 "/></g></g><g style="fill:#ffffff;fill-opacity:1;"><g transform="translate(29.22115, 17.440271)"><path style="stroke:none" d="M 1.015625 -0.828125 L 0.578125 -0.296875 L 0.78125 -0.203125 L 0.75 0 L 0.0625 0 L 0.03125 -0.203125 L 0.28125 -0.296875 L 0.828125 -0.953125 L 0.28125 -1.765625 L 0.03125 -1.859375 L 0.0625 -2.0625 L 0.953125 -2.0625 L 0.984375 -1.859375 L 0.78125 -1.765625 L 1.046875 -1.375 L 1.046875 -1.25 L 1.46875 -1.765625 L 1.265625 -1.859375 L 1.296875 -2.0625 L 2 -2.0625 L 2.03125 -1.859375 L 1.765625 -1.765625 L 1.234375 -1.09375 L 1.765625 -0.296875 L 2.015625 -0.203125 L 1.984375 0 L 1.09375 0 L 1.0625 -0.203125 L 1.28125 -0.296875 L 1.015625 -0.671875 Z M 1.015625 -0.828125 "/></g></g><g style="fill:#ffffff;fill-opacity:1;"><g transform="translate(32.869607, 17.440271)"><path style="stroke:none" d="M 1.015625 -0.828125 L 0.578125 -0.296875 L 0.78125 -0.203125 L 0.75 0 L 0.0625 0 L 0.03125 -0.203125 L 0.28125 -0.296875 L 0.828125 -0.953125 L 0.28125 -1.765625 L 0.03125 -1.859375 L 0.0625 -2.0625 L 0.953125 -2.0625 L 0.984375 -1.859375 L 0.78125 -1.765625 L 1.046875 -1.375 L 1.046875 -1.25 L 1.46875 -1.765625 L 1.265625 -1.859375 L 1.296875 -2.0625 L 2 -2.0625 L 2.03125 -1.859375 L 1.765625 -1.765625 L 1.234375 -1.09375 L 1.765625 -0.296875 L 2.015625 -0.203125 L 1.984375 0 L 1.09375 0 L 1.0625 -0.203125 L 1.28125 -0.296875 L 1.015625 -0.671875 Z M 1.015625 -0.828125 "/></g></g><g style="fill:#ffffff;fill-opacity:1;"><g transform="translate(36.518064, 17.440271)"><path style="stroke:none" d="M 1.84375 -1.765625 L 1.203125 0 L 0.96875 0.046875 L 0.28125 -1.765625 L 0.015625 -1.859375 L 0.046875 -2.0625 L 0.90625 -2.0625 L 0.9375 -1.859375 L 0.71875 -1.765625 L 1.09375 -0.78125 L 1.09375 -0.4375 L 1.609375 -1.765625 L 1.375 -1.859375 L 1.40625 -2.0625 L 2.078125 -2.0625 L 2.109375 -1.859375 Z M 1.84375 -1.765625 "/></g></g></g></svg>